<svg xmlns="http://www.w3.org/2000/svg" xmlns:xlink="http://www.w3.org/1999/xlink" width="1280" zoomAndPan="magnify" viewBox="0 0 960 599.999999" height="800" preserveAspectRatio="xMidYMid meet" version="1.2"><defs><clipPath id="d903adc336"><path d="M 343 284 L 623.542969 284 L 623.542969 402 L 343 402 Z M 343 284 "/></clipPath><clipPath id="c93cd711e8"><path d="M 561 284 L 623.542969 284 L 623.542969 349 L 561 349 Z M 561 284 "/></clipPath><clipPath id="0406367564"><path d="M 217.3125 60 L 227 60 L 227 191 L 217.3125 191 Z M 217.3125 60 "/></clipPath><filter x="0%" y="0%" width="100%" filterUnits="objectBoundingBox" id="e2a9962887" height="100%"><feColorMatrix values="0 0 0 0 1 0 0 0 0 1 0 0 0 0 1 0 0 0 1 0" type="matrix" in="SourceGraphic"/></filter><clipPath id="2bef512a43"><path d="M 0.3125 0 L 9 0 L 9 130.800781 L 0.3125 130.800781 Z M 0.3125 0 "/></clipPath><clipPath id="33296c2188"><rect x="0" width="10" y="0" height="131"/></clipPath><clipPath id="3022ae56dc"><path d="M 477 411 L 537 411 L 537 469.5 L 477 469.5 Z M 477 411 "/></clipPath></defs><g id="509585919a"><rect x="0" width="960" y="0" height="599.999999" style="fill:#ffffff;fill-opacity:1;stroke:none;"/><rect x="0" width="960" y="0" height="599.999999" style="fill:#ffffff;fill-opacity:1;stroke:none;"/><path style=" stroke:none;fill-rule:nonzero;fill:#27254c;fill-opacity:1;" d="M 510.878906 136.78125 C 511.089844 136.660156 511.164062 136.386719 511.042969 136.175781 C 509.28125 133.085938 507.144531 128.96875 506.234375 124.511719 C 504.3125 115.121094 507.851562 103.789062 501.5 95.628906 C 500.585938 94.449219 499.578125 93.550781 498.515625 92.953125 C 498.304688 92.832031 498.03125 92.910156 497.914062 93.125 C 497.792969 93.339844 497.871094 93.609375 498.085938 93.726562 C 499.042969 94.261719 499.957031 95.085938 500.800781 96.171875 C 506.867188 103.960938 503.472656 115.4375 505.363281 124.691406 C 506.300781 129.269531 508.480469 133.46875 510.277344 136.613281 C 510.394531 136.824219 510.664062 136.898438 510.878906 136.78125 Z M 510.878906 136.78125 "/><path style=" stroke:none;fill-rule:nonzero;fill:#df2715;fill-opacity:1;" d="M 342.71875 327.378906 C 342.816406 327.183594 342.734375 326.941406 342.535156 326.84375 C 342.335938 326.75 342.097656 326.832031 342 327.027344 C 337.183594 336.871094 325.40625 342.925781 314.601562 341.117188 C 304.632812 339.453125 296.0625 331.191406 293.730469 321.386719 C 297.113281 322.652344 301.792969 323.683594 306.601562 322.511719 C 311.5625 321.304688 315.640625 317.714844 317 313.371094 C 318.511719 308.535156 316.300781 302.929688 312.078125 300.875 C 308.769531 299.269531 304.417969 299.707031 300.429688 302.050781 C 294.117188 305.757812 291.230469 311.902344 292.648438 320.089844 C 282.128906 315.539062 274.152344 304.769531 273.925781 293.460938 C 286.265625 293.886719 293.921875 284.050781 290.351562 278.476562 C 289.011719 276.386719 286.164062 275.347656 283.425781 275.945312 C 280.605469 276.5625 278.515625 278.589844 277.257812 280.183594 C 274.59375 283.554688 273.191406 287.929688 273.125 292.621094 C 264.203125 291.964844 256.785156 285.46875 252.738281 277.484375 C 249.90625 271.894531 248.328125 265.164062 247.917969 256.90625 C 247.90625 256.6875 247.714844 256.5 247.496094 256.53125 C 247.277344 256.539062 247.105469 256.726562 247.117188 256.949219 C 247.539062 265.316406 249.144531 272.152344 252.027344 277.84375 C 256.175781 286.039062 263.839844 292.765625 273.125 293.421875 C 273.324219 304.617188 281.042969 316.097656 292.832031 321.035156 C 295.046875 331.371094 304.011719 340.160156 314.46875 341.90625 C 325.539062 343.757812 337.722656 337.589844 342.71875 327.378906 Z M 311.726562 301.59375 C 315.613281 303.484375 317.632812 308.660156 316.238281 313.132812 C 314.960938 317.214844 311.105469 320.59375 306.414062 321.738281 C 301.5625 322.917969 296.828125 321.753906 293.527344 320.453125 C 292.863281 317.050781 292.882812 313.28125 294.21875 310.050781 C 296.933594 303.484375 305.683594 298.65625 311.726562 301.59375 Z M 289.675781 278.90625 C 291.398438 281.59375 289.859375 285.398438 287.445312 287.769531 C 284.035156 291.117188 279.035156 292.84375 273.921875 292.664062 C 273.980469 288.136719 275.324219 283.921875 277.882812 280.679688 C 279.0625 279.1875 281.007812 277.292969 283.597656 276.726562 C 286.085938 276.179688 288.550781 277.144531 289.675781 278.90625 Z M 289.675781 278.90625 "/><g clip-rule="nonzero" clip-path="url(#d903adc336)"><path style=" stroke:none;fill-rule:nonzero;fill:#9dd3f5;fill-opacity:1;" d="M 370.492188 348.179688 L 366.144531 401.503906 L 404.5 348.515625 L 591.441406 348.515625 C 609.160156 348.515625 623.535156 334.160156 623.535156 316.429688 C 623.535156 298.699219 609.171875 284.335938 591.441406 284.335938 L 375.144531 284.335938 C 357.464844 284.335938 343.054688 298.664062 343.054688 316.429688 C 343.054688 332.574219 354.980469 345.929688 370.492188 348.179688 Z M 370.492188 348.179688 "/></g><path style=" stroke:none;fill-rule:nonzero;fill:#6db0f4;fill-opacity:1;" d="M 375.179688 295.671875 C 382.53125 312.28125 398.050781 324.15625 414.832031 331.117188 C 431.609375 338.066406 449.800781 340.726562 467.746094 343.550781 C 468.773438 343.710938 469.847656 343.894531 470.679688 344.511719 C 471.578125 345.183594 472.058594 346.265625 472.496094 347.308594 C 472.671875 347.707031 472.839844 348.117188 473.019531 348.515625 L 496.460938 348.515625 C 495.707031 343.976562 493.992188 339.492188 491.792969 335.488281 C 485.28125 323.621094 474.917969 314.25 463.574219 306.851562 Z M 375.179688 295.671875 "/><g clip-rule="nonzero" clip-path="url(#c93cd711e8)"><path style=" stroke:none;fill-rule:nonzero;fill:#6db0f4;fill-opacity:1;" d="M 561.804688 284.335938 L 561.804688 348.511719 L 591.441406 348.511719 C 609.171875 348.511719 623.535156 334.152344 623.535156 316.425781 C 623.535156 298.699219 609.171875 284.335938 591.441406 284.335938 Z M 561.804688 284.335938 "/></g><path style=" stroke:none;fill-rule:nonzero;fill:#ffffff;fill-opacity:1;" d="M 594.105469 300.75 C 601.757812 300.75 607.964844 306.957031 607.964844 314.609375 C 607.964844 322.261719 601.757812 328.46875 594.105469 328.46875 C 586.449219 328.46875 580.242188 322.261719 580.242188 314.609375 C 580.242188 306.957031 586.449219 300.75 594.105469 300.75 Z M 594.105469 320.742188 C 597.488281 320.742188 600.238281 317.992188 600.238281 314.609375 C 600.238281 311.222656 597.488281 308.476562 594.105469 308.476562 C 590.707031 308.476562 587.96875 311.222656 587.96875 314.609375 C 587.96875 317.992188 590.707031 320.742188 594.105469 320.742188 Z M 594.105469 320.742188 "/><path style=" stroke:none;fill-rule:nonzero;fill:#ffffff;fill-opacity:1;" d="M 576.773438 338.445312 L 589.546875 324.523438 C 590.625 323.347656 590.546875 321.515625 589.371094 320.4375 C 588.191406 319.355469 586.363281 319.433594 585.28125 320.613281 L 572.507812 334.535156 C 571.425781 335.710938 571.507812 337.542969 572.683594 338.621094 C 573.863281 339.703125 575.691406 339.621094 576.773438 338.445312 Z M 576.773438 338.445312 "/><path style=" stroke:none;fill-rule:nonzero;fill:#27254c;fill-opacity:1;" d="M 289.746094 206.902344 C 290.1875 203.867188 289.824219 200.757812 288.695312 197.902344 C 287.554688 195.015625 286.988281 194.703125 287.578125 190.011719 C 287.605469 189.792969 287.449219 189.59375 287.230469 189.566406 C 287.011719 189.535156 286.8125 189.695312 286.785156 189.914062 C 286.175781 194.777344 286.785156 195.257812 287.949219 198.195312 C 289.027344 200.921875 289.375 203.890625 288.957031 206.789062 C 288.925781 207.007812 289.078125 207.210938 289.296875 207.242188 C 289.535156 207.273438 289.71875 207.109375 289.746094 206.902344 Z M 289.746094 206.902344 "/><path style=" stroke:none;fill-rule:nonzero;fill:#27254c;fill-opacity:1;" d="M 243.558594 207.089844 C 244.507812 204.171875 244.675781 201.042969 244.042969 198.042969 C 243.40625 195.003906 242.910156 194.59375 244.28125 190.078125 C 244.347656 189.863281 244.226562 189.640625 244.015625 189.578125 C 243.804688 189.511719 243.582031 189.632812 243.515625 189.84375 C 243.046875 191.394531 242.511719 193.15625 242.628906 194.925781 C 242.703125 196.0625 243.042969 197.160156 243.261719 198.207031 C 243.863281 201.070312 243.703125 204.058594 242.796875 206.84375 C 242.730469 207.054688 242.84375 207.28125 243.054688 207.347656 C 243.261719 207.414062 243.488281 207.300781 243.558594 207.089844 Z M 243.558594 207.089844 "/><g clip-rule="nonzero" clip-path="url(#0406367564)"><g mask="url(#e21aef54fc)" transform="matrix(1,0,0,1,217,60)"><g clip-path="url(#33296c2188)"><g clip-rule="nonzero" clip-path="url(#2bef512a43)"><path style=" stroke:none;fill-rule:nonzero;fill:#6db0f4;fill-opacity:1;" d="M 0.0507812 130.5625 L 8.355469 130.5625 L 8.355469 0.0195312 L 0.0507812 0.0195312 Z M 0.0507812 130.5625 "/></g></g><mask id="e21aef54fc"><g filter="url(#e2a9962887)"><rect x="0" width="960" y="0" height="599.999999" style="fill:#000000;fill-opacity:0.81;stroke:none;"/></g></mask></g></g><path style=" stroke:none;fill-rule:nonzero;fill:#9dd3f5;fill-opacity:0.81;" d="M 375.121094 60.015625 L 225.355469 60.015625 L 225.355469 190.558594 L 375.121094 190.558594 Z M 375.121094 60.015625 "/><path style=" stroke:none;fill-rule:nonzero;fill:#ffffff;fill-opacity:0.81;" d="M 365.425781 69.710938 L 235.046875 69.710938 L 235.046875 180.867188 L 365.425781 180.867188 Z M 365.425781 69.710938 "/><path style=" stroke:none;fill-rule:nonzero;fill:#387ae3;fill-opacity:1;" d="M 365.425781 69.710938 L 235.046875 69.710938 L 235.046875 80.808594 L 365.425781 80.808594 Z M 365.425781 69.710938 "/><path style=" stroke:none;fill-rule:nonzero;fill:#ffffff;fill-opacity:1;" d="M 351.234375 75.257812 C 351.234375 75.5625 351.292969 75.855469 351.40625 76.136719 C 351.523438 76.417969 351.691406 76.667969 351.90625 76.882812 C 352.121094 77.097656 352.367188 77.261719 352.648438 77.378906 C 352.929688 77.496094 353.222656 77.554688 353.527344 77.554688 C 353.832031 77.554688 354.125 77.496094 354.40625 77.378906 C 354.6875 77.261719 354.9375 77.097656 355.152344 76.882812 C 355.367188 76.667969 355.53125 76.417969 355.648438 76.136719 C 355.765625 75.855469 355.824219 75.5625 355.824219 75.257812 C 355.824219 74.953125 355.765625 74.660156 355.648438 74.378906 C 355.53125 74.097656 355.367188 73.851562 355.152344 73.636719 C 354.9375 73.421875 354.6875 73.253906 354.40625 73.136719 C 354.125 73.023438 353.832031 72.964844 353.527344 72.964844 C 353.222656 72.964844 352.929688 73.023438 352.648438 73.136719 C 352.367188 73.253906 352.121094 73.421875 351.90625 73.636719 C 351.691406 73.851562 351.523438 74.097656 351.40625 74.378906 C 351.292969 74.660156 351.234375 74.953125 351.234375 75.257812 Z M 351.234375 75.257812 "/><path style=" stroke:none;fill-rule:nonzero;fill:#ffffff;fill-opacity:1;" d="M 339.753906 75.257812 C 339.753906 75.5625 339.8125 75.855469 339.929688 76.136719 C 340.046875 76.417969 340.210938 76.667969 340.425781 76.882812 C 340.644531 77.097656 340.890625 77.261719 341.171875 77.378906 C 341.453125 77.496094 341.746094 77.554688 342.050781 77.554688 C 342.355469 77.554688 342.648438 77.496094 342.929688 77.378906 C 343.210938 77.261719 343.457031 77.097656 343.675781 76.882812 C 343.890625 76.667969 344.054688 76.417969 344.171875 76.136719 C 344.289062 75.855469 344.347656 75.5625 344.347656 75.257812 C 344.347656 74.953125 344.289062 74.660156 344.171875 74.378906 C 344.054688 74.097656 343.890625 73.851562 343.675781 73.636719 C 343.457031 73.421875 343.210938 73.253906 342.929688 73.136719 C 342.648438 73.023438 342.355469 72.964844 342.050781 72.964844 C 341.746094 72.964844 341.453125 73.023438 341.171875 73.136719 C 340.890625 73.253906 340.644531 73.421875 340.425781 73.636719 C 340.210938 73.851562 340.046875 74.097656 339.929688 74.378906 C 339.8125 74.660156 339.753906 74.953125 339.753906 75.257812 Z M 339.753906 75.257812 "/><path style=" stroke:none;fill-rule:nonzero;fill:#ffffff;fill-opacity:1;" d="M 328.277344 75.257812 C 328.277344 75.5625 328.335938 75.855469 328.453125 76.136719 C 328.570312 76.417969 328.734375 76.667969 328.949219 76.882812 C 329.164062 77.097656 329.414062 77.261719 329.695312 77.378906 C 329.976562 77.496094 330.269531 77.554688 330.574219 77.554688 C 330.878906 77.554688 331.171875 77.496094 331.453125 77.378906 C 331.734375 77.261719 331.980469 77.097656 332.195312 76.882812 C 332.410156 76.667969 332.578125 76.417969 332.695312 76.136719 C 332.808594 75.855469 332.867188 75.5625 332.867188 75.257812 C 332.867188 74.953125 332.808594 74.660156 332.695312 74.378906 C 332.578125 74.097656 332.410156 73.851562 332.195312 73.636719 C 331.980469 73.421875 331.734375 73.253906 331.453125 73.136719 C 331.171875 73.023438 330.878906 72.964844 330.574219 72.964844 C 330.269531 72.964844 329.976562 73.023438 329.695312 73.136719 C 329.414062 73.253906 329.164062 73.421875 328.949219 73.636719 C 328.734375 73.851562 328.570312 74.097656 328.453125 74.378906 C 328.335938 74.660156 328.277344 74.953125 328.277344 75.257812 Z M 328.277344 75.257812 "/><path style=" stroke:none;fill-rule:nonzero;fill:#27254c;fill-opacity:1;" d="M 496.082031 89.945312 C 498 91.457031 499.230469 93.671875 500.191406 95.917969 C 504.421875 105.808594 502.996094 113.789062 503.878906 123.183594 C 504.480469 129.558594 506.414062 136.21875 511.265625 140.398438 C 505.984375 140.839844 500.664062 140.832031 495.386719 140.371094 C 494.433594 140.289062 494.136719 140.101562 493.765625 139.097656 C 492.589844 135.902344 491.558594 132.65625 490.675781 129.367188 C 491.128906 132.886719 491.582031 136.40625 492.035156 139.925781 C 492.007812 139.703125 473.179688 139.535156 471.429688 139.457031 C 464.621094 139.152344 457.847656 138.804688 451.101562 137.910156 C 449.632812 130.839844 448.824219 123.636719 448.6875 116.417969 C 448.597656 111.449219 448.859375 106.320312 450.957031 101.8125 "/><path style=" stroke:none;fill-rule:nonzero;fill:#27254c;fill-opacity:1;" d="M 490.101562 86.265625 C 491.769531 88.710938 493.59375 91.121094 496.007812 92.832031 C 498.421875 94.546875 501.539062 95.488281 504.394531 94.707031 C 506.113281 94.242188 507.613281 93.195312 508.976562 92.050781 C 507.976562 92.621094 506.902344 93.101562 505.757812 93.210938 C 504.613281 93.316406 503.386719 93.007812 502.585938 92.183594 C 506.320312 90.75 509.730469 84.628906 505.078125 82.046875 C 504.085938 81.496094 502.191406 80.753906 501.042969 81.242188 C 502.695312 80.542969 504 79.375 505.050781 77.929688 C 510.160156 70.894531 504.648438 64.808594 496.304688 66.917969 C 494.539062 67.367188 492.835938 68.113281 491.359375 69.183594 C 490.640625 69.707031 490.117188 70.371094 489.476562 70.949219 C 488.824219 71.535156 488.125 71.894531 487.667969 72.691406 C 486.820312 70.21875 487.078125 67.390625 488.359375 65.109375 C 484.585938 67.289062 482.617188 71.765625 482.324219 76.109375 C 482.03125 80.457031 483.160156 84.757812 484.277344 88.96875 "/><path style=" stroke:none;fill-rule:nonzero;fill:#ffc2a5;fill-opacity:1;" d="M 509.242188 416.441406 L 484.917969 424.804688 C 485.289062 382.605469 485.160156 397.160156 485.1875 394.011719 L 485.203125 392.550781 L 507.734375 387.976562 C 509.800781 427 509.089844 413.519531 509.242188 416.441406 Z M 509.242188 416.441406 "/><path style=" stroke:none;fill-rule:nonzero;fill:#e0916e;fill-opacity:1;" d="M 508.5 402.402344 C 500.335938 402.8125 492.859375 407.066406 485.050781 409.894531 C 485.257812 385.691406 485.160156 397.28125 485.1875 394.011719 C 492.507812 391.144531 500.777344 390.789062 507.976562 392.582031 C 508.03125 393.585938 507.78125 388.941406 508.5 402.402344 Z M 508.5 402.402344 "/><g clip-rule="nonzero" clip-path="url(#3022ae56dc)"><path style=" stroke:none;fill-rule:nonzero;fill:#8686e1;fill-opacity:1;" d="M 535.761719 462.296875 C 534.019531 466.011719 529.449219 468.121094 525.644531 468.8125 C 522.363281 469.40625 518.996094 469.488281 515.699219 469.027344 C 507.585938 467.890625 504.359375 464.421875 499.179688 458.375 C 484.21875 440.90625 480.546875 439.222656 478.511719 435.09375 C 476.78125 431.582031 477.46875 427.695312 479.023438 424.25 C 480.367188 421.269531 481.601562 420.554688 483.945312 414.046875 C 484.117188 413.570312 484.296875 413.074219 484.640625 412.699219 C 484.984375 412.328125 485.542969 412.105469 486.003906 412.308594 C 486.953125 412.726562 487.25 415.304688 488.910156 416.792969 C 490.082031 417.847656 491.734375 418.167969 493.304688 418.214844 C 498.289062 418.367188 502.945312 415.957031 506.609375 412.722656 C 507.25 412.15625 507.921875 411.574219 508.742188 411.355469 C 509.835938 411.066406 511.019531 411.492188 511.878906 412.226562 C 514.402344 414.382812 515.886719 420.832031 517.675781 425.289062 C 523.414062 439.59375 540.011719 453.203125 535.761719 462.296875 Z M 535.761719 462.296875 "/></g><path style=" stroke:none;fill-rule:nonzero;fill:#ffffff;fill-opacity:1;" d="M 525.292969 466.804688 C 528.382812 466.246094 532.496094 464.503906 533.933594 461.429688 C 534.039062 461.210938 533.941406 460.945312 533.71875 460.839844 C 533.5 460.738281 533.234375 460.832031 533.132812 461.054688 C 531.839844 463.820312 528.015625 465.410156 525.136719 465.933594 C 522.117188 466.480469 519.078125 466.546875 516.109375 466.128906 C 508.839844 465.113281 506.132812 462.007812 501.382812 456.460938 C 487.9375 440.761719 482.703125 437.011719 481.117188 433.785156 C 480.003906 431.53125 480.191406 428.726562 481.667969 425.453125 C 482.753906 423.046875 484.035156 421.902344 486.046875 416.722656 C 486.136719 416.496094 486.023438 416.238281 485.796875 416.152344 C 485.566406 416.0625 485.3125 416.175781 485.222656 416.402344 C 483.265625 421.4375 481.949219 422.679688 480.859375 425.089844 C 479.269531 428.617188 479.089844 431.675781 480.320312 434.179688 C 482.117188 437.816406 486.140625 440.023438 500.710938 457.035156 C 505.628906 462.78125 508.476562 465.957031 515.984375 467.003906 C 518.960938 467.421875 522.085938 467.382812 525.292969 466.804688 Z M 525.292969 466.804688 "/><path style=" stroke:none;fill-rule:nonzero;fill:#ffffff;fill-opacity:1;" d="M 521.777344 434.4375 C 521.972656 434.292969 522.015625 434.015625 521.867188 433.816406 C 521.722656 433.621094 521.445312 433.578125 521.25 433.726562 C 517.59375 436.421875 513.09375 437.792969 508.574219 437.574219 C 507.878906 437.542969 507.167969 437.453125 506.703125 437.039062 C 506.519531 436.875 506.242188 436.894531 506.078125 437.074219 C 505.914062 437.257812 505.929688 437.539062 506.113281 437.699219 C 506.785156 438.300781 507.710938 438.421875 508.53125 438.460938 C 513.328125 438.683594 518 437.226562 521.777344 434.4375 Z M 521.777344 434.4375 "/><path style=" stroke:none;fill-rule:nonzero;fill:#ffffff;fill-opacity:1;" d="M 525.941406 441.5625 C 526.136719 441.410156 526.167969 441.132812 526.015625 440.941406 C 525.867188 440.75 525.585938 440.714844 525.394531 440.867188 C 521.058594 444.277344 515.523438 444.972656 513.585938 444.222656 C 513.355469 444.132812 513.101562 444.246094 513.011719 444.476562 C 512.921875 444.703125 513.035156 444.960938 513.265625 445.046875 C 515.445312 445.890625 521.292969 445.222656 525.941406 441.5625 Z M 525.941406 441.5625 "/><path style=" stroke:none;fill-rule:nonzero;fill:#ffffff;fill-opacity:1;" d="M 532.089844 448.839844 C 532.304688 448.726562 532.386719 448.457031 532.273438 448.242188 C 532.160156 448.027344 531.890625 447.941406 531.675781 448.058594 C 527.84375 450.085938 523.546875 451.089844 519.222656 450.957031 C 518.980469 450.933594 518.773438 451.140625 518.765625 451.382812 C 518.757812 451.628906 518.953125 451.832031 519.195312 451.839844 C 523.757812 451.976562 528.179688 450.910156 532.089844 448.839844 Z M 532.089844 448.839844 "/><path style=" stroke:none;fill-rule:nonzero;fill:#8686e1;fill-opacity:1;" d="M 509.976562 317.386719 C 506.800781 323.464844 504.511719 330 503.199219 336.730469 C 502.917969 338.175781 502.726562 339.820312 503.632812 340.976562 C 504.578125 342.1875 506.3125 342.355469 507.847656 342.421875 C 513.136719 342.65625 518.148438 344.363281 523.382812 345.363281 C 529.542969 346.289062 535.78125 346.734375 541.859375 348.15625 C 548.101562 349.613281 559.199219 353.8125 564.132812 353.132812 C 567.507812 352.667969 568.789062 350.359375 570.816406 348.070312 C 572.925781 345.6875 574.4375 344.199219 575.042969 340.824219 C 576.230469 334.179688 574.960938 326.890625 570.609375 321.730469 C 565.957031 316.207031 559.75 315.398438 553.027344 316.191406 C 549.945312 316.558594 547.265625 318.113281 544.164062 318.464844 C 540.722656 318.855469 537.199219 318.257812 533.972656 317.050781 C 532.433594 316.472656 530.921875 315.753906 529.296875 315.515625 C 525.777344 315.003906 522.378906 316.792969 519.277344 318.523438 C 518.953125 318.703125 515.125 314.34375 514.335938 314.125 C 512.398438 313.585938 510.914062 315.597656 509.976562 317.386719 Z M 509.976562 317.386719 "/><path style=" stroke:none;fill-rule:nonzero;fill:#ffffff;fill-opacity:1;" d="M 515.074219 343.363281 C 515.320312 343.34375 515.503906 343.132812 515.488281 342.890625 C 514.941406 334.902344 516.15625 326.726562 519.007812 319.25 C 519.09375 319.019531 518.980469 318.765625 518.753906 318.675781 C 518.523438 318.589844 518.265625 318.707031 518.179688 318.933594 C 515.285156 326.53125 514.046875 334.835938 514.601562 342.949219 C 514.621094 343.199219 514.839844 343.378906 515.074219 343.363281 Z M 515.074219 343.363281 "/><path style=" stroke:none;fill-rule:nonzero;fill:#ffffff;fill-opacity:1;" d="M 562.117188 349.265625 C 564.363281 348.242188 565.855469 345.851562 566.679688 341.960938 C 567.542969 337.882812 567.535156 334.679688 566.648438 331.871094 C 564.6875 325.660156 559.15625 321.410156 553.171875 321.578125 C 550 321.65625 546.835938 322.949219 543.769531 322.972656 C 540.472656 322.992188 537.132812 321.558594 534.050781 320.605469 C 529.726562 319.273438 526.371094 319.300781 523.796875 320.691406 C 523.578125 320.808594 523.5 321.074219 523.617188 321.289062 C 523.730469 321.503906 524 321.585938 524.214844 321.46875 C 527.796875 319.539062 532.253906 320.914062 535.910156 322.148438 C 538.277344 322.945312 541.167969 323.921875 543.777344 323.859375 C 547.03125 323.832031 550.054688 322.539062 553.191406 322.460938 C 558.757812 322.339844 563.960938 326.300781 565.800781 332.136719 C 566.640625 334.792969 566.644531 337.855469 565.8125 341.777344 C 565.050781 345.375 563.722656 347.5625 561.75 348.460938 C 561.527344 348.5625 561.429688 348.824219 561.53125 349.046875 C 561.632812 349.269531 561.898438 349.367188 562.117188 349.265625 Z M 562.117188 349.265625 "/><path style=" stroke:none;fill-rule:nonzero;fill:#f6b395;fill-opacity:1;" d="M 406.710938 218.757812 L 415.195312 240.351562 L 428.355469 218.902344 C 428.410156 218.808594 440.238281 199.527344 440.289062 199.441406 C 440.289062 199.441406 424.371094 185.804688 423.332031 185.234375 C 422.296875 184.660156 407.164062 217.777344 406.710938 218.757812 Z M 406.710938 218.757812 "/><path style=" stroke:none;fill-rule:nonzero;fill:#e0916e;fill-opacity:1;" d="M 410.65625 210.226562 C 412.097656 211.390625 413.550781 212.589844 415.339844 213.351562 C 417.390625 214.222656 419.664062 214.40625 421.792969 215.035156 C 424.253906 215.765625 426.523438 217.109375 428.355469 218.902344 L 434.503906 208.878906 C 433.777344 207.65625 432.957031 206.484375 432.011719 205.417969 C 428.125 201.027344 422.214844 198.472656 415.925781 199.0625 C 414.105469 202.851562 412.234375 206.839844 410.65625 210.226562 Z M 410.65625 210.226562 "/><path style=" stroke:none;fill-rule:nonzero;fill:#ff774c;fill-opacity:1;" d="M 403.703125 208.160156 C 403.917969 208.3125 404.09375 208.585938 404.351562 208.59375 C 411.367188 208.828125 417.976562 210.527344 424.5 213.054688 C 425.203125 213.324219 425.894531 213.605469 426.585938 213.890625 C 430.59375 215.546875 434.257812 217.332031 438.167969 219.265625 C 439.246094 216.367188 439.367188 213.636719 440.199219 210.710938 C 444.234375 196.523438 445.269531 193.515625 448.640625 177.265625 C 449.484375 173.242188 449.816406 168.902344 447.964844 165.085938 C 446.050781 161.140625 442.761719 159.199219 438.875 157.710938 C 434.542969 156.050781 431.09375 154.757812 426.460938 156.699219 C 422.214844 158.472656 418.949219 162.097656 416.734375 166.136719 C 413.929688 171.246094 413.417969 174.023438 403.703125 208.160156 Z M 403.703125 208.160156 "/><path style=" stroke:none;fill-rule:nonzero;fill:#fe484c;fill-opacity:1;" d="M 424.5 213.054688 C 425.203125 213.324219 425.894531 213.605469 426.585938 213.890625 C 428.710938 214.765625 430.78125 215.699219 432.804688 216.660156 C 433.128906 206.585938 430.203125 189.496094 428.859375 180.390625 C 428.917969 180.773438 427.730469 181.96875 427.511719 182.304688 C 426.023438 184.609375 426.214844 186.214844 424.5 213.054688 Z M 424.5 213.054688 "/><path style=" stroke:none;fill-rule:nonzero;fill:#ffc2a5;fill-opacity:1;" d="M 433.460938 162.265625 C 439.71875 169.046875 442.199219 170.882812 450.09375 173.363281 C 458.007812 175.839844 470.265625 178.832031 478.308594 176.523438 C 481.03125 175.734375 483.539062 174.3125 485.890625 172.71875 C 491.523438 168.902344 496.710938 163.460938 497.5 156.699219 C 494.660156 156.714844 491.773438 156.414062 488.929688 155.828125 C 481.527344 154.308594 482.644531 150.742188 482.394531 146.863281 C 482.015625 140.925781 481.796875 134.992188 481.546875 129.058594 C 481.527344 128.757812 481.542969 128.351562 481.558594 127.890625 C 481.613281 126.222656 481.738281 123.828125 480.988281 123.070312 C 480.199219 122.253906 477.347656 121.929688 476.222656 121.609375 C 471.660156 120.273438 467.132812 119.292969 462.855469 121.382812 C 462.089844 121.753906 458.507812 123.679688 458.558594 124.613281 L 458.675781 126.566406 C 458.941406 131.210938 459.351562 135.917969 459.246094 140.601562 C 459.164062 144.476562 459.289062 149.261719 456.441406 152.164062 C 450.148438 158.542969 440.917969 158.421875 433.460938 162.265625 Z M 433.460938 162.265625 "/><path style=" stroke:none;fill-rule:nonzero;fill:#e0916e;fill-opacity:1;" d="M 480.078125 156.507812 C 479.5 158.695312 477.898438 160.445312 476.230469 161.957031 C 472.203125 165.605469 467.128906 168.5 461.683594 168.460938 C 461.769531 169.03125 462.371094 169.363281 462.898438 169.582031 C 472.089844 173.359375 483.363281 170.707031 490.929688 162.167969 C 492.316406 160.613281 493.710938 158.613281 493.75 156.539062 C 492.132812 156.398438 490.519531 156.152344 488.929688 155.828125 C 481.527344 154.308594 482.644531 150.742188 482.394531 146.863281 C 482.015625 140.925781 481.796875 134.992188 481.546875 129.058594 C 481.527344 128.757812 481.542969 128.351562 481.558594 127.890625 C 480.996094 127.308594 480.371094 126.792969 479.675781 126.367188 C 477.742188 125.179688 475.445312 124.785156 473.210938 124.410156 C 468.449219 123.613281 462.460938 122.847656 458.675781 126.566406 C 458.941406 131.210938 459.351562 135.917969 459.246094 140.601562 C 465.953125 139.988281 472.015625 140.839844 478.28125 137.488281 C 478.289062 148.761719 481.199219 152.28125 480.078125 156.507812 Z M 480.078125 156.507812 "/><path style=" stroke:none;fill-rule:nonzero;fill:#ffc2a5;fill-opacity:1;" d="M 449.980469 120.453125 C 450.578125 124.484375 452.054688 128.476562 454.703125 131.582031 C 457.851562 135.242188 462.585938 137.480469 467.402344 137.574219 C 474.078125 137.695312 480.378906 133.816406 484.433594 128.507812 C 488.46875 123.195312 490.5 116.613281 491.613281 110.042969 C 492.273438 106.144531 492.644531 102.152344 492.171875 98.234375 C 491.695312 94.304688 490.324219 90.417969 487.816406 87.363281 C 483.238281 81.785156 475.5625 79.699219 468.773438 81.929688 C 462.578125 83.957031 457.964844 88.984375 454.664062 94.6875 C 450.226562 102.570312 448.769531 112.378906 449.980469 120.453125 Z M 449.980469 120.453125 "/><path style=" stroke:none;fill-rule:nonzero;fill:#18142e;fill-opacity:1;" d="M 467.730469 91.285156 C 466.234375 89.722656 466.027344 88.785156 465.363281 87.996094 C 465.039062 87.609375 464.605469 87.289062 464.105469 87.21875 C 463.332031 87.109375 462.585938 87.636719 462.175781 88.300781 C 461.5 89.394531 461.542969 90.714844 461.101562 91.886719 C 460.675781 93.019531 459.929688 94.03125 458.96875 94.765625 C 457.566406 95.824219 456.335938 95.515625 455.769531 93.570312 C 454.195312 88.144531 458.019531 82.539062 461.472656 81.953125 C 462.300781 81.8125 463.167969 81.941406 463.921875 82.308594 C 465.011719 82.835938 465.371094 83.328125 470.601562 88.730469 "/><path style=" stroke:none;fill-rule:nonzero;fill:#e0916e;fill-opacity:1;" d="M 467.78125 124.460938 C 468.023438 124.433594 468.199219 124.210938 468.167969 123.96875 C 468.140625 123.726562 467.917969 123.554688 467.675781 123.582031 C 466.511719 123.722656 465.304688 123.867188 464.148438 123.722656 C 462.902344 123.566406 461.863281 123.0625 461.21875 122.3125 C 460.5 121.472656 460.324219 120.257812 460.804688 119.425781 C 461.140625 118.832031 461.824219 118.367188 462.722656 118.105469 C 463.703125 117.820312 464.746094 117.800781 465.734375 118.046875 C 466.019531 118.117188 466.289062 117.898438 466.285156 117.613281 C 466.25 112.902344 465.886719 108.148438 465.210938 103.476562 C 465.175781 103.234375 464.957031 103.070312 464.707031 103.101562 C 464.464844 103.136719 464.296875 103.359375 464.332031 103.601562 C 464.976562 108.054688 465.335938 112.582031 465.394531 117.074219 C 463.480469 116.769531 460.988281 117.320312 460.035156 118.984375 C 459.367188 120.152344 459.578125 121.757812 460.546875 122.886719 C 461.332031 123.808594 462.574219 124.414062 464.035156 124.601562 C 465.289062 124.761719 466.542969 124.613281 467.78125 124.460938 Z M 467.78125 124.460938 "/><path style=" stroke:none;fill-rule:nonzero;fill:#18142e;fill-opacity:1;" d="M 470.429688 100.988281 C 471.210938 100.6875 472.078125 100.738281 472.910156 100.792969 C 477.574219 101.097656 482.289062 101.417969 486.488281 103.535156 C 487.964844 104.28125 489.132812 105.253906 490.367188 106.324219 C 483.472656 105.039062 476.425781 104.578125 469.421875 104.953125 C 468.878906 104.980469 468.457031 104.503906 468.546875 103.96875 C 468.753906 102.722656 469.121094 101.484375 470.429688 100.988281 Z M 470.429688 100.988281 "/><path style=" stroke:none;fill-rule:nonzero;fill:#18142e;fill-opacity:1;" d="M 451.300781 102.742188 C 454.054688 103.082031 456.789062 103.558594 459.5 104.15625 C 460.027344 104.277344 460.53125 103.875 460.523438 103.328125 C 460.523438 102.070312 460.367188 100.78125 459.160156 100.082031 C 458.4375 99.65625 457.570312 99.566406 456.746094 99.484375 C 455.355469 99.339844 453.941406 99.195312 452.539062 99.113281 C 452.054688 100.316406 451.640625 101.546875 451.300781 102.742188 Z M 451.300781 102.742188 "/><path style=" stroke:none;fill-rule:nonzero;fill:#27254c;fill-opacity:1;" d="M 450.730469 104.878906 C 451.371094 104.707031 451.757812 103.671875 452.152344 103.183594 C 454.140625 100.722656 456.273438 99.617188 457.609375 97.84375 C 458.421875 96.765625 458.984375 95.1875 459.503906 93.929688 C 460.785156 90.808594 461.515625 87.460938 461.636719 84.089844 C 463.300781 84.964844 464.96875 85.835938 466.625 86.707031 C 466.773438 90.324219 468.375 93.859375 471 96.34375 C 473.527344 98.742188 476.828125 100.074219 480.152344 100.953125 C 483.304688 101.789062 486.90625 101.691406 488.070312 105.339844 C 488.882812 107.886719 488.792969 110.503906 488.972656 113.128906 C 489.441406 110.867188 490.839844 108.8125 492.765625 107.542969 C 493.425781 107.113281 494.132812 106.773438 494.773438 106.316406 C 498.578125 103.617188 498.871094 97.5 497.328125 93.507812 C 495.027344 87.535156 492.554688 81.171875 486.875 77.53125 C 482.097656 74.472656 476.621094 76.21875 471.683594 77.859375 C 471.519531 77.914062 470.464844 76.523438 470.265625 76.339844 C 464.410156 70.953125 455.402344 73.882812 451.644531 82.246094 C 447.421875 91.652344 451.898438 104.59375 450.730469 104.878906 Z M 450.730469 104.878906 "/><path style=" stroke:none;fill-rule:nonzero;fill:#ffc2a5;fill-opacity:1;" d="M 487.480469 108.464844 C 488.3125 106.449219 490.359375 105.015625 492.535156 104.816406 C 494.707031 104.617188 496.929688 105.613281 498.316406 107.300781 C 501.070312 110.65625 500.402344 115.917969 496.5 118.898438 C 494.839844 120.164062 492.695312 120.867188 490.632812 120.546875 C 488.570312 120.226562 486.652344 118.792969 486.003906 116.808594 Z M 487.480469 108.464844 "/><path style=" stroke:none;fill-rule:nonzero;fill:#e0916e;fill-opacity:1;" d="M 491.3125 115.824219 C 491.355469 115.824219 491.398438 115.816406 491.4375 115.804688 C 493.820312 115.089844 494.800781 113.242188 494.429688 111.699219 C 494.117188 110.394531 492.761719 109.460938 491.355469 109.558594 C 490.089844 109.648438 488.886719 110.558594 488.367188 111.820312 C 488.273438 112.046875 488.382812 112.304688 488.609375 112.398438 C 488.835938 112.492188 489.09375 112.382812 489.1875 112.15625 C 489.582031 111.199219 490.480469 110.507812 491.417969 110.441406 C 492.390625 110.363281 493.355469 111.027344 493.570312 111.910156 C 493.71875 112.523438 493.515625 113.257812 493.046875 113.820312 C 492.621094 114.324219 491.976562 114.71875 491.183594 114.957031 C 490.949219 115.027344 490.816406 115.273438 490.886719 115.507812 C 490.945312 115.699219 491.121094 115.824219 491.3125 115.824219 Z M 491.3125 115.824219 "/><path style=" stroke:none;fill-rule:nonzero;fill:#ff774c;fill-opacity:1;" d="M 429.976562 208.132812 C 430.410156 226.054688 431.5625 246.5625 431.5625 249.925781 C 431.5625 253.777344 430.933594 258.230469 433.964844 260.496094 C 438.207031 263.617188 445.636719 265.050781 450.625 266.269531 C 462.753906 269.335938 472.195312 269.234375 483.519531 268.953125 C 486.714844 268.878906 490.292969 269.015625 493.824219 268.984375 C 495.925781 268.945312 501.394531 268.4375 502.605469 266.375 C 502.835938 265.949219 502.925781 265.46875 502.996094 264.996094 C 503.867188 259.582031 504.734375 251.273438 505.132812 247.492188 C 505.207031 246.792969 505.285156 246.089844 505.359375 245.394531 C 505.703125 242.199219 506.046875 238.996094 506.464844 235.800781 C 506.480469 235.625 506.503906 235.445312 506.527344 235.269531 C 507.207031 230.050781 508.273438 225.027344 509.425781 220.015625 C 509.613281 219.230469 509.796875 218.445312 509.980469 217.664062 C 510.789062 214.273438 511.628906 210.886719 512.414062 207.445312 C 514.445312 198.636719 514.308594 189.5 512.300781 181.050781 C 510.917969 175.269531 508.652344 169.726562 507.464844 163.898438 C 507.023438 161.777344 506.792969 157.363281 506.792969 157.363281 C 506.792969 157.363281 499.984375 156.613281 497.917969 156.28125 C 493.496094 155.570312 489.078125 154.839844 484.664062 154.121094 C 484.664062 154.121094 481.003906 163.425781 472.808594 163.691406 C 464.617188 163.953125 459.914062 159.398438 454.550781 153.191406 C 454.171875 152.75 434.324219 155.722656 430.671875 155.859375 C 428.902344 162.410156 431.386719 168.261719 429.703125 174.910156 C 428.792969 178.550781 427.925781 182.21875 427.628906 185.960938 C 427.039062 193.605469 429.757812 200.523438 429.976562 208.132812 Z M 429.976562 208.132812 "/><path style=" stroke:none;fill-rule:nonzero;fill:#fe484c;fill-opacity:1;" d="M 442.070312 198.308594 L 463.074219 247.433594 L 439.640625 250.902344 "/><path style=" stroke:none;fill-rule:nonzero;fill:#fe484c;fill-opacity:1;" d="M 494.632812 213.082031 C 495.339844 227.488281 496.164062 241.886719 497.109375 256.277344 C 500.191406 253.746094 503.117188 250.910156 505.132812 247.492188 C 505.207031 246.792969 505.285156 246.089844 505.359375 245.394531 C 505.703125 242.199219 506.046875 238.996094 506.464844 235.800781 C 506.480469 235.625 506.503906 235.445312 506.527344 235.269531 C 507.207031 230.050781 508.273438 225.027344 509.425781 220.015625 C 509.613281 219.230469 509.796875 218.445312 509.980469 217.664062 C 510.585938 213.128906 512.21875 209.660156 513.183594 203.472656 L 494.875 173.105469 C 495.523438 174.1875 494.027344 180.675781 493.859375 182.171875 C 493.390625 186.328125 493.457031 189.167969 494.632812 213.082031 Z M 494.632812 213.082031 "/><path style=" stroke:none;fill-rule:nonzero;fill:#27254c;fill-opacity:1;" d="M 506.796875 227.492188 C 506.433594 227.574219 506.089844 227.738281 505.773438 227.988281 C 505.453125 228.238281 505.164062 228.566406 504.902344 228.980469 C 504.640625 229.390625 504.410156 229.875 504.214844 230.429688 C 504.019531 230.984375 503.863281 231.601562 503.742188 232.28125 C 503.621094 232.960938 503.542969 233.691406 503.5 234.46875 C 503.457031 235.246094 503.457031 236.054688 503.496094 236.898438 C 503.535156 237.746094 503.617188 238.605469 503.734375 239.488281 C 503.851562 240.367188 504.007812 241.246094 504.203125 242.128906 C 504.394531 243.011719 504.621094 243.875 504.882812 244.726562 C 505.140625 245.574219 505.429688 246.390625 505.75 247.175781 C 506.066406 247.957031 506.40625 248.695312 506.769531 249.382812 C 507.132812 250.070312 507.507812 250.699219 507.902344 251.265625 C 508.296875 251.832031 508.699219 252.328125 509.109375 252.75 C 509.515625 253.175781 509.925781 253.519531 510.335938 253.78125 C 510.746094 254.046875 511.148438 254.226562 511.542969 254.320312 C 511.9375 254.414062 512.316406 254.421875 512.679688 254.339844 C 513.042969 254.261719 513.382812 254.097656 513.703125 253.847656 C 514.023438 253.597656 514.3125 253.265625 514.574219 252.855469 C 514.835938 252.445312 515.0625 251.960938 515.257812 251.40625 C 515.453125 250.847656 515.613281 250.230469 515.730469 249.550781 C 515.851562 248.871094 515.933594 248.144531 515.976562 247.367188 C 516.015625 246.589844 516.015625 245.777344 515.976562 244.933594 C 515.9375 244.089844 515.859375 243.226562 515.742188 242.347656 C 515.621094 241.464844 515.464844 240.585938 515.273438 239.703125 C 515.082031 238.824219 514.855469 237.957031 514.59375 237.109375 C 514.332031 236.257812 514.042969 235.441406 513.726562 234.660156 C 513.410156 233.875 513.070312 233.140625 512.707031 232.449219 C 512.34375 231.761719 511.964844 231.132812 511.570312 230.566406 C 511.179688 230 510.777344 229.503906 510.367188 229.082031 C 509.957031 228.65625 509.546875 228.316406 509.136719 228.050781 C 508.730469 227.785156 508.328125 227.609375 507.933594 227.515625 C 507.539062 227.421875 507.160156 227.414062 506.796875 227.492188 Z M 506.796875 227.492188 "/><path style=" stroke:none;fill-rule:nonzero;fill:#e0916e;fill-opacity:1;" d="M 472.871094 127.488281 C 473.011719 127.289062 472.964844 127.011719 472.765625 126.871094 C 472.566406 126.730469 472.289062 126.777344 472.148438 126.972656 C 470.25 129.636719 467.527344 130.507812 465.363281 129.875 C 465.128906 129.804688 464.882812 129.941406 464.8125 130.175781 C 464.746094 130.410156 464.878906 130.65625 465.113281 130.722656 C 467.613281 131.460938 470.738281 130.476562 472.871094 127.488281 Z M 472.871094 127.488281 "/><path style=" stroke:none;fill-rule:nonzero;fill:#27254c;fill-opacity:1;" d="M 436.660156 237.539062 C 436.644531 237.59375 436.625 237.652344 436.566406 237.730469 C 436.59375 237.667969 436.625 237.597656 436.660156 237.539062 Z M 436.660156 237.539062 "/><path style=" stroke:none;fill-rule:nonzero;fill:#fe484c;fill-opacity:1;" d="M 476.433594 163.382812 C 480.535156 162.027344 483.097656 158.386719 485.035156 154.53125 C 485.144531 154.3125 485.054688 154.046875 484.835938 153.9375 C 484.617188 153.824219 484.351562 153.914062 484.242188 154.132812 C 482.429688 157.75 480.011719 161.265625 476.15625 162.542969 C 472.875 163.625 467.917969 163.371094 463.734375 161.050781 C 461.9375 160.054688 460.304688 158.714844 458.730469 157.417969 C 457.4375 156.359375 455.976562 155.152344 455.164062 153.605469 C 455.050781 153.386719 454.785156 153.304688 454.566406 153.417969 C 454.351562 153.53125 454.265625 153.796875 454.378906 154.015625 C 455.273438 155.722656 456.8125 156.988281 458.167969 158.101562 C 459.773438 159.425781 461.4375 160.792969 463.304688 161.828125 C 467.691406 164.257812 472.941406 164.535156 476.433594 163.382812 Z M 476.433594 163.382812 "/><path style=" stroke:none;fill-rule:nonzero;fill:#fe484c;fill-opacity:1;" d="M 510.238281 219.195312 C 510.378906 219.195312 510.515625 219.132812 510.601562 219.011719 C 510.742188 218.8125 510.695312 218.535156 510.496094 218.394531 C 507.625 216.347656 505.976562 213.074219 504.398438 209.609375 C 502.355469 205.113281 500.0625 199.765625 498.589844 194.210938 C 496.355469 185.785156 495.46875 178.320312 495.882812 171.398438 C 495.894531 171.152344 495.710938 170.945312 495.464844 170.929688 C 495.226562 170.914062 495.011719 171.101562 494.996094 171.34375 C 494.578125 178.363281 495.476562 185.917969 497.734375 194.4375 C 499.226562 200.058594 501.53125 205.445312 503.59375 209.976562 C 505.21875 213.550781 506.933594 216.941406 509.984375 219.113281 C 510.058594 219.167969 510.148438 219.195312 510.238281 219.195312 Z M 510.238281 219.195312 "/><path style=" stroke:none;fill-rule:nonzero;fill:#ffc2a5;fill-opacity:1;" d="M 404.898438 132.75 C 405.507812 133.964844 404.59375 135.320312 404.042969 136.550781 C 402.492188 140.027344 403.898438 144.066406 403.410156 147.84375 C 403.039062 150.582031 401.703125 153.460938 400.167969 155.742188 C 399.039062 157.410156 412.507812 197.546875 415.855469 208.257812 C 417.410156 213.203125 418.6875 218.265625 419.359375 223.417969 C 419.941406 227.972656 420.660156 233.921875 419.265625 238.40625 C 418.894531 240.726562 418.292969 243.097656 416.855469 244.953125 C 414.777344 247.585938 410.78125 249.175781 407.4375 248.953125 C 405.78125 248.824219 404.222656 248.132812 402.769531 247.339844 C 397.160156 244.308594 393.496094 240.289062 391.785156 234.03125 C 387.730469 219.15625 388.625 203.488281 388.351562 188.253906 C 388.242188 182.355469 385.65625 162.4375 384.53125 160.628906 C 382.714844 157.691406 379.929688 155.222656 379.320312 151.824219 C 378.960938 149.839844 379.730469 148.109375 380.734375 146.460938 C 379.484375 146.753906 379.308594 145.210938 379.476562 144.300781 C 379.613281 143.53125 380.0625 142.832031 380.707031 142.382812 C 380.300781 142.722656 379.359375 142.261719 379.832031 141.039062 C 380.132812 140.175781 380.746094 139.410156 381.515625 138.914062 C 382.117188 138.539062 382.203125 138.050781 382.707031 137.527344 C 380.15625 133.839844 380.203125 128.902344 381.335938 124.5625 C 381.625 123.476562 382.707031 120.722656 384.304688 121.675781 C 384.941406 122.0625 385.238281 122.835938 385.417969 123.570312 C 386.265625 126.976562 385.839844 130.46875 387.285156 133.746094 C 387.160156 133.464844 388.417969 133.039062 388.582031 132.976562 C 389.429688 132.679688 389.722656 132.8125 390.519531 133.3125 C 392.761719 134.707031 394.972656 136.136719 397.164062 137.621094 C 397.769531 135.898438 398.785156 134.320312 400.113281 133.078125 C 400.804688 132.4375 401.589844 131.867188 402.507812 131.714844 C 403.425781 131.5625 404.480469 131.921875 404.898438 132.75 Z M 404.898438 132.75 "/><path style=" stroke:none;fill-rule:nonzero;fill:#e0916e;fill-opacity:1;" d="M 393.398438 150.117188 C 393.613281 149.011719 392.910156 146.941406 392.464844 145.910156 C 391.753906 144.265625 390.804688 143.253906 389.644531 142.90625 C 388.378906 142.527344 387.097656 142.988281 385.996094 143.449219 C 384.199219 144.203125 382.429688 145.070312 380.742188 146.035156 C 380.53125 146.15625 380.457031 146.425781 380.578125 146.640625 C 380.699219 146.851562 380.972656 146.921875 381.183594 146.804688 C 382.839844 145.859375 384.574219 145.003906 386.339844 144.265625 C 387.300781 143.863281 388.40625 143.460938 389.390625 143.753906 C 390.289062 144.023438 391.046875 144.867188 391.652344 146.261719 C 392.023438 147.121094 392.699219 149.078125 392.53125 149.945312 C 392.257812 151.355469 390.160156 151.792969 389.4375 150.671875 C 388.800781 149.683594 388.15625 148.925781 386.984375 148.925781 C 386.382812 148.9375 386.019531 149.136719 384.023438 149.984375 C 383.796875 150.082031 383.691406 150.339844 383.789062 150.566406 C 383.882812 150.789062 384.144531 150.898438 384.367188 150.800781 C 386.382812 149.945312 386.613281 149.820312 386.996094 149.8125 C 387.785156 149.789062 388.234375 150.4375 388.695312 151.152344 C 389.84375 152.9375 392.972656 152.3125 393.398438 150.117188 Z M 393.398438 150.117188 "/><path style=" stroke:none;fill-rule:nonzero;fill:#e0916e;fill-opacity:1;" d="M 395.632812 144.527344 C 395.550781 143.277344 394.578125 142.4375 393.917969 141.53125 C 392.964844 140.226562 392.386719 138.117188 390.570312 137.339844 C 389.726562 136.976562 388.832031 137.074219 387.988281 137.621094 C 386.941406 138.292969 384.398438 139.355469 380.4375 141.976562 C 380.234375 142.113281 380.179688 142.386719 380.316406 142.59375 C 380.449219 142.796875 380.726562 142.851562 380.929688 142.714844 C 384.878906 140.101562 387.242188 139.152344 388.464844 138.363281 C 389.839844 137.480469 391.015625 138.386719 391.859375 139.769531 C 392.550781 140.902344 392.59375 141.335938 393.714844 142.699219 C 394.222656 143.320312 394.707031 143.902344 394.75 144.585938 C 394.824219 145.699219 393.695312 146.511719 392.664062 146.085938 C 392.4375 145.992188 392.179688 146.101562 392.085938 146.328125 C 391.992188 146.554688 392.101562 146.8125 392.328125 146.90625 C 393.933594 147.570312 395.753906 146.316406 395.632812 144.527344 Z M 395.632812 144.527344 "/><path style=" stroke:none;fill-rule:nonzero;fill:#e0916e;fill-opacity:1;" d="M 383.019531 137.734375 C 384.121094 136.660156 385.308594 135.65625 386.550781 134.746094 C 386.902344 134.488281 387.246094 134.25 387.617188 134.148438 C 387.855469 134.085938 387.996094 133.84375 387.929688 133.605469 C 387.867188 133.367188 387.625 133.230469 387.386719 133.292969 C 386.871094 133.433594 386.429688 133.734375 386.027344 134.03125 C 384.75 134.964844 383.53125 135.996094 382.402344 137.101562 C 382.226562 137.273438 382.222656 137.550781 382.394531 137.726562 C 382.566406 137.902344 382.84375 137.90625 383.019531 137.734375 Z M 383.019531 137.734375 "/><path style=" stroke:none;fill-rule:nonzero;fill:#e0916e;fill-opacity:1;" d="M 396.515625 142.898438 C 396.894531 142.574219 397.167969 142.097656 397.355469 141.453125 C 397.730469 140.171875 397.644531 138.847656 397.511719 137.71875 C 397.484375 137.476562 397.265625 137.292969 397.019531 137.332031 C 396.777344 137.359375 396.605469 137.582031 396.632812 137.824219 C 396.753906 138.863281 396.835938 140.078125 396.507812 141.207031 C 396.367188 141.683594 396.179688 142.019531 395.9375 142.230469 C 395.71875 142.421875 395.355469 142.542969 395.089844 142.410156 C 394.871094 142.300781 394.605469 142.386719 394.492188 142.605469 C 394.382812 142.824219 394.472656 143.089844 394.691406 143.199219 C 395.226562 143.46875 395.960938 143.382812 396.515625 142.898438 Z M 396.515625 142.898438 "/><path style=" stroke:none;fill-rule:nonzero;fill:#fe484c;fill-opacity:1;" d="M 430.269531 216.625 C 430.492188 216.625 430.683594 216.460938 430.710938 216.234375 C 431.542969 208.859375 427.535156 200.089844 428.207031 187.773438 C 428.339844 185.3125 428.535156 182.722656 429.277344 180.527344 C 430.105469 178.101562 431.832031 175.953125 433.148438 173.691406 C 434.925781 170.632812 436.222656 167.328125 436.992188 163.871094 C 437.046875 163.632812 436.894531 163.398438 436.65625 163.34375 C 436.417969 163.292969 436.179688 163.441406 436.128906 163.679688 C 434.085938 172.824219 429.96875 175.746094 428.441406 180.246094 C 427.660156 182.546875 427.457031 185.203125 427.320312 187.726562 C 426.660156 199.890625 430.621094 209.140625 429.832031 216.132812 C 429.804688 216.378906 429.976562 216.597656 430.222656 216.625 C 430.238281 216.625 430.253906 216.625 430.269531 216.625 Z M 430.269531 216.625 "/><path style=" stroke:none;fill-rule:nonzero;fill:#e0916e;fill-opacity:1;" d="M 418.125 233.128906 C 418.347656 233.128906 418.539062 232.960938 418.5625 232.738281 C 419.347656 225.882812 418.6875 218.777344 416.648438 212.183594 C 416.578125 211.949219 416.332031 211.820312 416.09375 211.890625 C 415.863281 211.964844 415.730469 212.210938 415.800781 212.445312 C 417.804688 218.921875 418.453125 225.902344 417.683594 232.636719 C 417.65625 232.878906 417.832031 233.097656 418.074219 233.125 C 418.089844 233.128906 418.105469 233.128906 418.125 233.128906 Z M 418.125 233.128906 "/><path style=" stroke:none;fill-rule:nonzero;fill:#27254c;fill-opacity:1;" d="M 414.671875 297.113281 C 432.308594 304.210938 450.753906 309.605469 469.675781 311.816406 C 478.5 312.847656 487.835938 313.625 496.601562 312.226562 C 502.476562 311.285156 510.792969 309.644531 512.648438 302.863281 C 513.167969 300.964844 513.050781 298.960938 512.875 297 C 512.183594 289.28125 510.613281 281.640625 508.21875 274.269531 C 507.113281 270.863281 504.980469 267.355469 504.203125 263.914062 C 503.441406 260.558594 505.082031 256.757812 504.859375 253.261719 L 431.257812 253.261719 C 431.015625 255.285156 430.855469 256.390625 431.007812 258.421875 L 431.007812 267.839844 C 419.253906 267.839844 408.164062 265.273438 396.414062 265.609375 C 393.582031 265.691406 390.398438 265.992188 388.585938 268.175781 C 386.5625 270.617188 387.214844 274.300781 388.546875 277.179688 C 393.265625 287.371094 404.253906 292.921875 414.671875 297.113281 Z M 414.671875 297.113281 "/><path style=" stroke:none;fill-rule:nonzero;fill:#18142e;fill-opacity:1;" d="M 508.882812 275.109375 C 505.894531 276.085938 502.25 277.164062 499.871094 279.269531 C 497.222656 281.609375 494.644531 284.035156 492.125 286.515625 C 488.230469 290.34375 485.34375 293.554688 483.390625 298.746094 C 483.324219 298.925781 483.257812 299.121094 483.316406 299.304688 C 483.378906 299.5 483.566406 299.628906 483.742188 299.734375 C 486.296875 301.292969 489.160156 302.351562 492.113281 302.832031 C 495.695312 303.414062 498.851562 301.972656 501.410156 299.496094 C 506.476562 294.585938 509.332031 285.183594 510.039062 278.054688 "/><path style=" stroke:none;fill-rule:nonzero;fill:#18142e;fill-opacity:1;" d="M 511.8125 273.296875 L 437.011719 277.589844 L 489.300781 298.464844 L 485.707031 304.769531 L 403.0625 267.671875 L 475.09375 262.652344 "/><path style=" stroke:none;fill-rule:nonzero;fill:#27254c;fill-opacity:1;" d="M 375.683594 297.332031 C 379.34375 304.808594 386.03125 310.414062 393.222656 314.609375 C 403.578125 320.65625 412.4375 322.277344 426.621094 326.144531 C 434.992188 328.417969 443.433594 330.472656 452.011719 331.84375 C 456.550781 332.574219 461.117188 333.109375 465.671875 333.78125 C 466.28125 333.871094 466.882812 333.957031 467.492188 334.054688 C 468.226562 334.175781 468.964844 334.292969 469.703125 334.421875 C 475.917969 335.503906 482.109375 337.015625 488.324219 338.226562 C 488.347656 338.234375 488.371094 338.234375 488.394531 338.242188 C 495.578125 339.636719 502.78125 340.597656 510.042969 339.964844 C 509.898438 335.015625 510.734375 330.171875 510.691406 325.1875 C 510.675781 323.804688 511.054688 310.4375 510.324219 310.253906 C 506.0625 309.183594 501.792969 308.101562 497.550781 306.957031 C 496.699219 306.722656 495.851562 306.492188 495.003906 306.257812 C 490.375 304.976562 485.777344 303.617188 481.226562 302.078125 C 480.226562 301.75 479.234375 301.40625 478.230469 301.046875 C 476.574219 300.453125 474.925781 299.835938 473.28125 299.1875 C 471.472656 298.476562 469.660156 297.722656 467.875 296.945312 C 466.097656 296.167969 464.335938 295.367188 462.582031 294.535156 C 458.894531 292.789062 458.199219 294.167969 437.441406 282.894531 C 425.882812 276.632812 425.105469 276.113281 422.578125 275.0625 C 419.84375 273.875 416.960938 272.921875 414.230469 271.828125 C 410.257812 270.234375 406.78125 267.917969 402.753906 266.382812 C 398.222656 264.667969 393.136719 263.988281 388.515625 265.445312 C 384.257812 266.769531 378.464844 270.847656 375.867188 275.277344 C 371.96875 281.78125 372.320312 290.445312 375.683594 297.332031 Z M 375.683594 297.332031 "/><path style=" stroke:none;fill-rule:nonzero;fill:#18142e;fill-opacity:1;" d="M 467.492188 334.054688 C 468.226562 334.175781 468.964844 334.292969 469.703125 334.421875 C 475.917969 335.503906 482.109375 337.015625 488.324219 338.226562 C 488.347656 338.234375 488.371094 338.234375 488.394531 338.242188 C 493.648438 331.277344 496.921875 320.402344 495.074219 306.738281 C 495.050781 306.578125 495.035156 306.417969 495.003906 306.257812 C 490.375 304.976562 485.777344 303.617188 481.226562 302.078125 C 480.226562 301.75 479.234375 301.40625 478.230469 301.046875 C 476.574219 300.453125 474.925781 299.835938 473.28125 299.1875 C 474.605469 310.582031 473.683594 322.441406 468.339844 332.523438 C 468.066406 333.039062 467.789062 333.550781 467.492188 334.054688 Z M 467.492188 334.054688 "/><path style=" stroke:none;fill-rule:nonzero;fill:#18142e;fill-opacity:1;" d="M 375.867188 275.28125 L 422.578125 275.28125 L 422.578125 275.058594 C 419.84375 273.878906 416.964844 272.921875 414.234375 271.828125 C 410.257812 270.234375 406.785156 267.917969 402.753906 266.382812 C 398.21875 264.667969 393.136719 263.984375 388.511719 265.445312 C 384.234375 266.78125 378.480469 270.839844 375.867188 275.28125 Z M 375.867188 275.28125 "/><path style=" stroke:none;fill-rule:nonzero;fill:#18142e;fill-opacity:1;" d="M 503.128906 308.46875 C 503.1875 308.230469 503.046875 307.992188 502.808594 307.929688 C 479.832031 302.03125 457.605469 293.316406 436.742188 282.023438 C 435.195312 281.183594 433.65625 280.332031 432.113281 279.480469 C 425.582031 275.867188 418.824219 272.128906 411.664062 269.605469 C 411.433594 269.523438 411.179688 269.648438 411.101562 269.878906 C 411.019531 270.109375 411.140625 270.359375 411.371094 270.441406 C 418.460938 272.941406 425.183594 276.660156 431.683594 280.253906 C 453.648438 292.414062 475.941406 301.949219 502.589844 308.789062 C 502.8125 308.847656 503.066406 308.714844 503.128906 308.46875 Z M 503.128906 308.46875 "/><path style=" stroke:none;fill-rule:nonzero;fill:#27254c;fill-opacity:1;" d="M 521.074219 315.433594 C 521.210938 323.378906 521.089844 331.339844 520.503906 339.273438 C 520.007812 345.972656 518.734375 352.035156 517.539062 358.699219 C 516.84375 362.597656 512.453125 401.722656 509.640625 401.628906 C 500.945312 401.335938 492.277344 400.449219 483.707031 398.980469 C 481.464844 368.074219 479.21875 337.171875 476.976562 306.269531 C 475.945312 292.042969 473.1875 280.792969 480.46875 269.617188 C 483.914062 264.332031 490.101562 259.101562 496.855469 260.457031 C 499.648438 261.019531 502.160156 262.597656 504.199219 264.585938 C 506.480469 266.800781 508.230469 269.492188 510.414062 271.773438 C 512.925781 274.398438 514.589844 278.410156 515.910156 281.746094 C 520.101562 292.351562 520.878906 304 521.074219 315.433594 Z M 521.074219 315.433594 "/><path style=" stroke:none;fill-rule:nonzero;fill:#18142e;fill-opacity:1;" d="M 478.414062 334.863281 C 478.429688 334.863281 478.445312 334.863281 478.457031 334.863281 C 478.675781 334.839844 478.835938 334.640625 478.8125 334.421875 C 477.003906 317.566406 476.128906 300.300781 476.128906 281.628906 C 476.128906 278.523438 477.707031 276.15625 478.679688 272.847656 C 478.742188 272.636719 478.621094 272.414062 478.410156 272.351562 C 478.199219 272.292969 477.976562 272.410156 477.914062 272.621094 C 477.589844 273.71875 477.195312 274.722656 476.808594 275.691406 C 476.046875 277.617188 475.328125 279.4375 475.328125 281.628906 C 475.328125 300.328125 476.207031 317.625 478.019531 334.507812 C 478.039062 334.710938 478.214844 334.863281 478.414062 334.863281 Z M 478.414062 334.863281 "/><path style=" stroke:none;fill-rule:nonzero;fill:#261518;fill-opacity:1;" d="M 455.503906 111.324219 C 455.472656 111.726562 455.488281 112.113281 455.550781 112.488281 C 455.609375 112.863281 455.714844 113.199219 455.855469 113.496094 C 456 113.789062 456.171875 114.023438 456.375 114.191406 C 456.578125 114.359375 456.792969 114.453125 457.027344 114.472656 C 457.257812 114.488281 457.488281 114.429688 457.714844 114.292969 C 457.941406 114.15625 458.144531 113.953125 458.332031 113.683594 C 458.515625 113.414062 458.667969 113.097656 458.785156 112.734375 C 458.902344 112.371094 458.976562 111.992188 459.007812 111.589844 C 459.035156 111.191406 459.023438 110.804688 458.960938 110.429688 C 458.898438 110.050781 458.796875 109.714844 458.65625 109.421875 C 458.511719 109.125 458.339844 108.894531 458.136719 108.726562 C 457.933594 108.554688 457.71875 108.460938 457.484375 108.445312 C 457.253906 108.425781 457.023438 108.488281 456.796875 108.621094 C 456.570312 108.757812 456.367188 108.964844 456.179688 109.234375 C 455.992188 109.503906 455.84375 109.820312 455.726562 110.183594 C 455.609375 110.542969 455.535156 110.925781 455.503906 111.324219 Z M 455.503906 111.324219 "/><path style=" stroke:none;fill-rule:nonzero;fill:#261518;fill-opacity:1;" d="M 469.226562 111.324219 C 469.199219 111.726562 469.210938 112.113281 469.273438 112.488281 C 469.335938 112.863281 469.4375 113.199219 469.578125 113.496094 C 469.722656 113.789062 469.894531 114.023438 470.097656 114.191406 C 470.300781 114.359375 470.515625 114.453125 470.75 114.472656 C 470.980469 114.488281 471.210938 114.429688 471.4375 114.292969 C 471.664062 114.15625 471.867188 113.953125 472.054688 113.683594 C 472.238281 113.414062 472.390625 113.097656 472.507812 112.734375 C 472.625 112.371094 472.699219 111.992188 472.730469 111.589844 C 472.757812 111.191406 472.746094 110.804688 472.683594 110.429688 C 472.621094 110.050781 472.519531 109.714844 472.378906 109.421875 C 472.234375 109.125 472.0625 108.894531 471.859375 108.726562 C 471.65625 108.554688 471.441406 108.460938 471.207031 108.445312 C 470.976562 108.425781 470.746094 108.488281 470.519531 108.621094 C 470.292969 108.757812 470.089844 108.964844 469.902344 109.234375 C 469.71875 109.503906 469.566406 109.820312 469.449219 110.183594 C 469.332031 110.542969 469.257812 110.925781 469.226562 111.324219 Z M 469.226562 111.324219 "/><path style=" stroke:none;fill-rule:nonzero;fill:#ffc2a5;fill-opacity:1;" d="M 521.667969 249.140625 C 513.140625 251.558594 503.871094 253.09375 494.648438 253.546875 C 494.347656 253.558594 494.035156 253.570312 493.730469 253.582031 C 490.433594 253.714844 487.136719 253.726562 483.839844 253.582031 C 480.796875 253.425781 478.453125 255.816406 476 257.351562 C 470.929688 260.535156 464.464844 261.210938 458.644531 258.738281 C 456.929688 258.015625 455 255.960938 453.078125 256.433594 C 451.605469 256.804688 450.699219 258.316406 450.226562 259.65625 L 450.3125 259.632812 C 449.871094 260.953125 449.789062 262.804688 448.984375 264.292969 C 448.28125 265.621094 446.714844 266.660156 445.324219 266.175781 C 444.15625 266.058594 443.71875 265.066406 443.488281 263.917969 C 443.34375 263.160156 443.246094 262.398438 443.222656 261.625 L 441.386719 262.144531 C 441.074219 262.699219 440.722656 263.253906 440.359375 263.785156 C 439.914062 264.4375 439.429688 265.089844 438.765625 265.523438 C 437.335938 266.460938 435.738281 265.90625 435.371094 264.234375 C 435.304688 264.3125 434.367188 265.421875 434.273438 265.539062 C 434.191406 265.617188 433.839844 266.238281 433.066406 266.515625 C 432.824219 266.636719 432.558594 266.722656 432.28125 266.734375 C 431.472656 266.78125 430.660156 265.886719 430.855469 265.1875 C 430.335938 266.054688 429.769531 266.925781 428.933594 267.492188 C 427.96875 268.121094 426.566406 268.242188 425.757812 267.433594 C 424.839844 266.527344 425.082031 265.019531 425.394531 263.773438 C 426.941406 257.398438 428.777344 250.550781 433.886719 246.433594 C 438.320312 242.859375 444.296875 242.085938 449.9375 241.289062 C 465.988281 239.039062 481.355469 235.683594 495.589844 231.570312 C 498.40625 230.757812 501.171875 229.84375 503.949219 228.960938 C 504.660156 228.730469 505.386719 228.5 506.109375 228.273438 C 507.136719 227.945312 508.152344 227.632812 509.191406 227.316406 C 512.222656 226.414062 516.183594 226.738281 518.226562 229.46875 C 519.878906 231.6875 520.21875 234.601562 520.496094 237.351562 C 520.882812 241.277344 521.269531 245.214844 521.667969 249.140625 Z M 521.667969 249.140625 "/><path style=" stroke:none;fill-rule:nonzero;fill:#e0916e;fill-opacity:1;" d="M 521.667969 249.140625 C 517.679688 250.269531 513.433594 251.230469 509.371094 251.914062 C 509.410156 249.1875 509.359375 246.46875 509.082031 243.765625 C 508.539062 238.511719 507.066406 233.210938 503.949219 228.960938 C 504.660156 228.730469 505.386719 228.5 506.109375 228.273438 C 507.136719 227.945312 508.152344 227.632812 509.191406 227.316406 C 512.222656 226.414062 516.183594 226.738281 518.226562 229.46875 C 519.878906 231.6875 520.21875 234.601562 520.496094 237.351562 C 520.882812 241.277344 521.269531 245.214844 521.667969 249.140625 Z M 521.667969 249.140625 "/><path style=" stroke:none;fill-rule:nonzero;fill:#ff774c;fill-opacity:1;" d="M 490.589844 179.027344 C 491.042969 182.84375 492.304688 186.503906 493.699219 190.085938 C 498.589844 202.691406 503.289062 214.773438 509.78125 226.648438 L 506.976562 227.09375 C 507.089844 227.207031 507.199219 227.324219 507.296875 227.4375 C 510.257812 227.421875 513.738281 232.691406 515.273438 239.699219 C 516.824219 246.800781 515.832031 253.101562 513.070312 254.222656 C 513.070312 254.230469 513.0625 254.238281 513.0625 254.246094 C 532.132812 249.230469 541.632812 248.074219 545.699219 244.269531 C 552.394531 237.980469 546.6875 224.804688 543.519531 218.261719 C 535.972656 202.609375 528.417969 186.957031 520.871094 171.308594 C 518.324219 166.03125 515.5 160.4375 509.996094 158.15625 C 507.371094 157.066406 505.9375 157.644531 503.445312 158.757812 C 499.050781 160.71875 494.71875 163.472656 492.378906 167.835938 C 490.554688 171.21875 490.144531 175.214844 490.589844 179.027344 Z M 490.589844 179.027344 "/><path style=" stroke:none;fill-rule:nonzero;fill:#fe484c;fill-opacity:1;" d="M 506.980469 227.53125 C 507.003906 227.53125 507.027344 227.53125 507.050781 227.527344 L 509.847656 227.082031 C 509.988281 227.058594 510.113281 226.96875 510.175781 226.839844 C 510.238281 226.710938 510.234375 226.558594 510.167969 226.429688 C 506.445312 219.625 503.761719 214.097656 501.71875 209.03125 C 501.144531 207.613281 496.109375 194.953125 495.773438 193.980469 C 494.828125 191.265625 494.464844 190.386719 494.203125 190.101562 C 491.800781 184.039062 489.648438 177.601562 491.558594 171.285156 C 491.632812 171.050781 491.5 170.804688 491.265625 170.730469 C 491.027344 170.664062 490.785156 170.792969 490.710938 171.027344 C 488.703125 177.667969 490.953125 184.324219 493.4375 190.574219 C 493.46875 190.65625 493.527344 190.726562 493.597656 190.777344 C 493.945312 191.316406 495.0625 194.675781 495.199219 195.019531 C 500.023438 206.582031 500.925781 211.292969 509.089844 226.304688 L 506.910156 226.652344 C 506.667969 226.691406 506.503906 226.917969 506.542969 227.160156 C 506.578125 227.378906 506.765625 227.53125 506.980469 227.53125 Z M 493.84375 190.851562 L 493.847656 190.851562 Z M 493.84375 190.851562 "/><path style=" stroke:none;fill-rule:nonzero;fill:#f8e77f;fill-opacity:1;" d="M 463.074219 265.132812 L 362.210938 265.132812 L 341.207031 198.308594 L 442.070312 198.308594 Z M 463.074219 265.132812 "/><path style=" stroke:none;fill-rule:nonzero;fill:#fccf36;fill-opacity:1;" d="M 389.226562 228.28125 L 363.867188 232.117188 L 358.886719 210.769531 L 389.078125 227.824219 "/><path style=" stroke:none;fill-rule:nonzero;fill:#fab01b;fill-opacity:1;" d="M 511.8125 265.128906 L 362.207031 265.128906 L 362.207031 273.296875 L 511.8125 273.296875 Z M 511.8125 265.128906 "/><path style=" stroke:none;fill-rule:nonzero;fill:#edf1f5;fill-opacity:1;" d="M 395.976562 227.445312 C 395.613281 227.789062 395.296875 228.175781 395.027344 228.613281 C 394.761719 229.046875 394.546875 229.515625 394.386719 230.023438 C 394.230469 230.53125 394.128906 231.0625 394.082031 231.625 C 394.035156 232.183594 394.050781 232.757812 394.121094 233.351562 C 394.191406 233.945312 394.320312 234.539062 394.503906 235.140625 C 394.6875 235.742188 394.921875 236.335938 395.214844 236.925781 C 395.503906 237.511719 395.839844 238.082031 396.226562 238.632812 C 396.613281 239.183594 397.035156 239.707031 397.503906 240.199219 C 397.96875 240.691406 398.464844 241.148438 398.992188 241.5625 C 399.519531 241.980469 400.066406 242.351562 400.636719 242.671875 C 401.207031 242.996094 401.785156 243.269531 402.375 243.488281 C 402.964844 243.707031 403.554688 243.867188 404.140625 243.972656 C 404.726562 244.078125 405.300781 244.125 405.863281 244.113281 C 406.425781 244.101562 406.964844 244.03125 407.480469 243.898438 C 407.996094 243.769531 408.476562 243.585938 408.925781 243.34375 C 409.375 243.101562 409.78125 242.808594 410.148438 242.464844 C 410.511719 242.121094 410.828125 241.730469 411.097656 241.296875 C 411.363281 240.863281 411.578125 240.394531 411.738281 239.886719 C 411.894531 239.378906 412 238.847656 412.042969 238.285156 C 412.089844 237.726562 412.074219 237.148438 412.003906 236.558594 C 411.933594 235.964844 411.804688 235.367188 411.621094 234.765625 C 411.4375 234.164062 411.203125 233.570312 410.910156 232.984375 C 410.621094 232.398438 410.285156 231.828125 409.898438 231.277344 C 409.511719 230.726562 409.089844 230.203125 408.621094 229.710938 C 408.15625 229.21875 407.660156 228.761719 407.132812 228.347656 C 406.605469 227.929688 406.058594 227.558594 405.488281 227.234375 C 404.917969 226.910156 404.339844 226.640625 403.75 226.421875 C 403.160156 226.203125 402.570312 226.039062 401.984375 225.9375 C 401.398438 225.832031 400.824219 225.785156 400.261719 225.796875 C 399.699219 225.808594 399.160156 225.878906 398.644531 226.007812 C 398.128906 226.136719 397.648438 226.324219 397.199219 226.566406 C 396.75 226.808594 396.34375 227.101562 395.976562 227.445312 Z M 395.976562 227.445312 "/><path style=" stroke:none;fill-rule:nonzero;fill:#387ae3;fill-opacity:1;" d="M 389.226562 228.28125 L 364.699219 228.28125 L 358.886719 210.769531 L 383.417969 210.769531 Z M 389.226562 228.28125 "/><path style=" stroke:none;fill-rule:nonzero;fill:#ffffff;fill-opacity:1;" d="M 366.09375 220.339844 L 384.027344 220.339844 C 384.269531 220.339844 384.46875 220.140625 384.46875 219.894531 C 384.46875 219.652344 384.269531 219.453125 384.027344 219.453125 L 366.09375 219.453125 C 365.851562 219.453125 365.652344 219.652344 365.652344 219.894531 C 365.652344 220.140625 365.851562 220.339844 366.09375 220.339844 Z M 366.09375 220.339844 "/><path style=" stroke:none;fill-rule:nonzero;fill:#ffffff;fill-opacity:1;" d="M 367.871094 225.726562 L 385.804688 225.726562 C 386.050781 225.726562 386.246094 225.53125 386.246094 225.285156 C 386.246094 225.042969 386.050781 224.84375 385.804688 224.84375 L 367.871094 224.84375 C 367.628906 224.84375 367.429688 225.042969 367.429688 225.285156 C 367.429688 225.53125 367.628906 225.726562 367.871094 225.726562 Z M 367.871094 225.726562 "/><path style=" stroke:none;fill-rule:nonzero;fill:#ffffff;fill-opacity:1;" d="M 471.679688 270.496094 L 489.117188 270.496094 L 489.117188 267.535156 L 471.679688 267.535156 Z M 471.679688 270.496094 "/><path style=" stroke:none;fill-rule:nonzero;fill:#ffffff;fill-opacity:1;" d="M 494.683594 270.496094 L 503.550781 270.496094 L 503.550781 267.535156 L 494.683594 267.535156 Z M 494.683594 270.496094 "/><path style=" stroke:none;fill-rule:nonzero;fill:#fccf36;fill-opacity:1;" d="M 511.8125 265.128906 L 463.074219 265.128906 L 463.074219 273.296875 L 511.8125 273.296875 Z M 511.8125 265.128906 "/><path style=" stroke:none;fill-rule:nonzero;fill:#fe484c;fill-opacity:1;" d="M 526.304688 232.1875 C 526.480469 232.1875 526.648438 232.082031 526.714844 231.910156 C 526.804688 231.683594 526.695312 231.425781 526.46875 231.335938 C 521.152344 229.222656 515.644531 227.46875 510.09375 226.113281 C 509.855469 226.054688 509.617188 226.203125 509.558594 226.4375 C 509.5 226.675781 509.644531 226.917969 509.882812 226.972656 C 515.394531 228.316406 520.863281 230.0625 526.140625 232.15625 C 526.195312 232.179688 526.25 232.1875 526.304688 232.1875 Z M 526.304688 232.1875 "/><path style=" stroke:none;fill-rule:nonzero;fill:#72d497;fill-opacity:1;" d="M 279.144531 206.160156 L 301.234375 202.339844 C 306.753906 201.386719 311.992188 205.082031 312.941406 210.589844 L 319.324219 247.5 C 320.277344 253.015625 316.585938 258.253906 311.066406 259.207031 L 288.976562 263.027344 C 283.46875 263.980469 278.230469 260.285156 277.277344 254.769531 L 270.894531 217.855469 C 269.941406 212.347656 273.636719 207.109375 279.144531 206.160156 Z M 291.847656 213.804688 C 293.449219 213.527344 294.535156 212 294.253906 210.390625 C 293.976562 208.78125 292.441406 207.703125 290.839844 207.980469 C 289.230469 208.257812 288.144531 209.789062 288.421875 211.398438 C 288.703125 213.007812 290.238281 214.082031 291.847656 213.804688 Z M 291.847656 213.804688 "/><path style=" stroke:none;fill-rule:nonzero;fill:#ffffff;fill-opacity:1;" d="M 310.800781 233.886719 L 309.058594 234.1875 C 309.3125 235.652344 308.5 236.671875 307.257812 236.882812 C 305.996094 237.101562 304.9375 236.472656 304.640625 234.765625 C 304.378906 233.25 305.125 232.34375 306.335938 232.136719 C 307.230469 231.980469 308.0625 232.339844 308.605469 232.929688 L 310.144531 232.425781 L 308.621094 226.261719 L 302.164062 227.375 L 302.433594 228.953125 L 307.445312 228.085938 L 308.21875 231.183594 C 307.453125 230.789062 306.605469 230.667969 305.6875 230.828125 C 303.742188 231.164062 302.472656 232.605469 302.898438 235.066406 C 303.332031 237.574219 305.089844 238.679688 307.496094 238.265625 C 309.855469 237.855469 311.207031 236.226562 310.800781 233.886719 Z M 310.800781 233.886719 "/><path style=" stroke:none;fill-rule:nonzero;fill:#ffffff;fill-opacity:1;" d="M 301.394531 236.933594 C 301.714844 235.105469 301.097656 231.519531 300.179688 229.902344 C 299.375 228.484375 298.265625 227.847656 296.308594 228.183594 C 294.382812 228.515625 293.53125 229.492188 293.246094 231.109375 C 292.921875 232.921875 293.539062 236.511719 294.457031 238.125 C 295.273438 239.554688 296.402344 240.183594 298.328125 239.847656 C 300.277344 239.515625 301.113281 238.546875 301.394531 236.933594 Z M 295.765625 236.976562 C 295.296875 235.773438 294.839844 233.070312 294.871094 231.792969 C 294.898438 230.574219 295.359375 229.785156 296.550781 229.582031 C 297.738281 229.375 298.4375 229.945312 298.871094 231.058594 C 299.339844 232.253906 299.800781 234.972656 299.769531 236.242188 C 299.738281 237.460938 299.277344 238.246094 298.085938 238.453125 C 296.910156 238.65625 296.203125 238.097656 295.765625 236.976562 Z M 295.765625 236.976562 "/><path style=" stroke:none;fill-rule:nonzero;fill:#ffffff;fill-opacity:1;" d="M 291.335938 232.105469 C 291.003906 230.191406 290.1875 229.242188 288.242188 229.578125 C 286.3125 229.910156 285.859375 231.066406 286.191406 232.996094 C 286.523438 234.917969 287.328125 235.84375 289.269531 235.511719 C 291.179688 235.179688 291.671875 234.042969 291.335938 232.105469 Z M 281.078125 231.019531 L 279.632812 231.269531 L 289.796875 241.121094 L 291.210938 240.875 Z M 288.089844 234.140625 C 287.695312 233.660156 287.601562 232.773438 287.574219 232.671875 C 287.472656 232.070312 287.476562 231.601562 287.597656 231.273438 C 287.714844 230.941406 287.992188 230.738281 288.429688 230.664062 C 288.878906 230.585938 289.210938 230.679688 289.425781 230.945312 C 289.808594 231.421875 289.914062 232.332031 289.9375 232.433594 C 290.042969 233.035156 290.035156 233.5 289.921875 233.824219 C 289.808594 234.148438 289.53125 234.347656 289.082031 234.425781 C 288.640625 234.5 288.3125 234.40625 288.089844 234.140625 Z M 284.6875 239.160156 C 284.355469 237.246094 283.539062 236.296875 281.59375 236.632812 C 279.675781 236.964844 279.214844 238.148438 279.542969 240.050781 C 279.875 241.960938 280.6875 242.898438 282.617188 242.566406 C 284.527344 242.234375 285.023438 241.101562 284.6875 239.160156 Z M 281.4375 241.179688 C 281.011719 240.644531 280.691406 239.035156 280.945312 238.328125 C 281.0625 237.996094 281.34375 237.792969 281.78125 237.71875 C 282.230469 237.640625 282.5625 237.738281 282.785156 238.007812 C 283.210938 238.53125 283.527344 240.144531 283.277344 240.859375 C 283.160156 241.195312 282.878906 241.402344 282.429688 241.480469 C 281.992188 241.554688 281.660156 241.457031 281.4375 241.179688 Z M 281.4375 241.179688 "/><path style=" stroke:none;fill-rule:nonzero;fill:#f2b9ad;fill-opacity:1;" d="M 232.847656 201.949219 L 255.179688 203.933594 C 260.753906 204.429688 264.871094 209.34375 264.375 214.910156 L 261.058594 252.222656 C 260.5625 257.800781 255.648438 261.914062 250.070312 261.417969 L 227.742188 259.433594 C 222.171875 258.941406 218.058594 254.023438 218.554688 248.449219 L 221.871094 211.136719 C 222.363281 205.566406 227.28125 201.453125 232.847656 201.949219 Z M 243.160156 212.601562 C 244.777344 212.746094 246.21875 211.546875 246.363281 209.917969 C 246.507812 208.292969 245.300781 206.859375 243.683594 206.714844 C 242.054688 206.570312 240.613281 207.769531 240.46875 209.394531 C 240.324219 211.023438 241.53125 212.457031 243.160156 212.601562 Z M 243.160156 212.601562 "/><path style=" stroke:none;fill-rule:nonzero;fill:#ffffff;fill-opacity:1;" d="M 255.707031 238.167969 C 254.9375 236.5625 253.515625 235.714844 251.824219 234.015625 C 250.34375 232.535156 250.402344 231.066406 251.226562 230.273438 C 251.5625 229.949219 252.085938 229.820312 252.792969 229.882812 C 254.269531 230.015625 254.902344 230.847656 254.792969 232.070312 L 254.730469 232.753906 L 256.441406 232.90625 C 256.488281 232.796875 256.535156 232.421875 256.550781 232.242188 C 256.652344 231.09375 256.351562 230.195312 255.644531 229.550781 C 254.9375 228.910156 254 228.535156 252.839844 228.433594 C 250.390625 228.214844 249.058594 229.535156 248.890625 231.429688 C 248.59375 234.757812 253.019531 236.460938 254.058594 238.617188 L 248.230469 238.101562 L 248.085938 239.695312 L 255.960938 240.394531 C 255.960938 240.070312 256.207031 239.210938 255.707031 238.167969 Z M 255.707031 238.167969 "/><path style=" stroke:none;fill-rule:nonzero;fill:#ffffff;fill-opacity:1;" d="M 247.105469 236.042969 L 245.34375 235.886719 C 245.214844 237.351562 244.179688 238.140625 242.910156 238.03125 C 241.640625 237.917969 240.773438 237.042969 240.925781 235.308594 C 241.167969 232.59375 244.222656 232.636719 245.230469 234.550781 L 246.84375 234.460938 L 246.957031 228.109375 L 240.429688 227.53125 L 240.289062 229.125 L 245.355469 229.574219 L 245.304688 232.769531 C 244 231.582031 241.765625 231.359375 240.375 232.488281 C 239.675781 233.058594 239.273438 233.945312 239.164062 235.152344 C 238.941406 237.683594 240.351562 239.207031 242.789062 239.425781 C 245.167969 239.636719 246.894531 238.410156 247.105469 236.042969 Z M 247.105469 236.042969 "/><path style=" stroke:none;fill-rule:nonzero;fill:#ffffff;fill-opacity:1;" d="M 237.988281 230.144531 C 238.160156 228.191406 237.601562 227.078125 235.648438 226.90625 C 233.671875 226.730469 232.957031 227.761719 232.789062 229.679688 C 232.613281 231.628906 233.15625 232.726562 235.113281 232.902344 C 237.066406 233.074219 237.816406 232.074219 237.988281 230.144531 Z M 234.328125 231.273438 C 234.183594 230.960938 234.136719 230.5 234.191406 229.890625 C 234.207031 229.792969 234.230469 228.898438 234.585938 228.375 C 234.785156 228.085938 235.105469 227.960938 235.550781 228 C 236.003906 228.042969 236.300781 228.21875 236.4375 228.53125 C 236.6875 229.09375 236.554688 229.992188 236.550781 230.097656 C 236.496094 230.707031 236.375 231.15625 236.179688 231.4375 C 235.988281 231.722656 235.664062 231.847656 235.210938 231.804688 C 234.769531 231.765625 234.472656 231.589844 234.328125 231.273438 Z M 228.351562 226.457031 L 226.890625 226.328125 L 234.183594 238.460938 L 235.613281 238.585938 Z M 229.746094 235.253906 C 229.921875 233.300781 229.359375 232.1875 227.40625 232.015625 C 225.472656 231.84375 224.71875 232.871094 224.546875 234.792969 C 224.378906 236.71875 224.921875 237.839844 226.875 238.011719 C 228.835938 238.183594 229.578125 237.175781 229.746094 235.253906 Z M 226.089844 236.367188 C 225.945312 236.042969 225.902344 235.570312 225.957031 234.949219 C 225.972656 234.871094 226 233.996094 226.347656 233.484375 C 226.546875 233.199219 226.867188 233.074219 227.308594 233.113281 C 227.765625 233.152344 228.0625 233.332031 228.207031 233.652344 C 228.488281 234.273438 228.375 235.910156 227.953125 236.535156 C 227.753906 236.828125 227.425781 236.957031 226.972656 236.914062 C 226.527344 236.875 226.234375 236.691406 226.089844 236.367188 Z M 226.089844 236.367188 "/><path style=" stroke:none;fill-rule:nonzero;fill:#27254c;fill-opacity:1;" d="M 243.5 207.910156 C 243.527344 207.882812 243.554688 207.855469 243.582031 207.828125 C 244.195312 208.207031 245.082031 208.195312 245.757812 208.175781 C 246.710938 208.144531 247.75 208.007812 249.027344 207.75 C 262.328125 205.03125 261.53125 195.546875 257.011719 195.027344 C 255.453125 194.855469 254.125 195.914062 253.007812 196.929688 C 250.398438 199.296875 244.511719 204.523438 243.445312 206.144531 C 243.421875 206.078125 243.398438 206.011719 243.375 205.945312 C 242.308594 203.167969 240.722656 199.640625 237.890625 197.003906 C 236.597656 195.800781 235.371094 195.167969 234.144531 195.082031 C 231.847656 194.933594 231.808594 197.144531 232.546875 199.28125 C 234.0625 203.667969 237.960938 207.1875 242.480469 208.25 C 242.941406 208.359375 243.214844 208.203125 243.5 207.910156 Z M 243.03125 207.246094 C 242.789062 207.484375 242.820312 207.507812 242.664062 207.472656 C 234.484375 205.550781 230.875 195.621094 234.085938 195.878906 C 235.125 195.953125 236.191406 196.511719 237.347656 197.589844 C 240.058594 200.113281 241.59375 203.535156 242.628906 206.230469 C 242.667969 206.34375 242.707031 206.453125 242.742188 206.554688 C 242.824219 206.789062 242.90625 207.027344 243.03125 207.246094 Z M 256.921875 195.820312 C 259.65625 196.132812 260.621094 200.890625 255.773438 204.242188 C 253.957031 205.496094 251.699219 206.386719 248.867188 206.964844 C 247.636719 207.214844 246.636719 207.347656 245.730469 207.375 C 245.238281 207.394531 244.378906 207.417969 243.957031 207.117188 C 243.949219 207.105469 243.941406 207.09375 243.933594 207.082031 C 243.738281 206.796875 245.09375 205.445312 245.335938 205.179688 C 246.355469 204.050781 250.910156 199.914062 253.546875 197.519531 C 254.476562 196.671875 255.675781 195.671875 256.921875 195.820312 Z M 256.921875 195.820312 "/><path style=" stroke:none;fill-rule:nonzero;fill:#27254c;fill-opacity:1;" d="M 289.828125 207.722656 C 289.851562 207.691406 289.871094 207.65625 289.894531 207.625 C 291.152344 208.125 294 207.113281 295.25 206.625 C 307.855469 201.710938 305.542969 192.460938 300.964844 192.734375 C 299.390625 192.820312 298.265625 194.097656 297.339844 195.289062 C 290.109375 204.542969 290.921875 203.695312 290.339844 204.53125 C 289.992188 205.042969 289.671875 205.542969 289.476562 205.992188 C 287.796875 202.980469 285.363281 199.828125 282.453125 197.925781 C 280.972656 196.953125 279.660156 196.546875 278.433594 196.664062 C 276.15625 196.890625 276.476562 199.078125 277.574219 201.074219 C 279.808594 205.140625 284.25 207.949219 288.882812 208.230469 C 289.367188 208.253906 289.597656 208.0625 289.828125 207.722656 Z M 289.253906 207.148438 C 289.054688 207.421875 289.089844 207.445312 288.929688 207.429688 C 284.566406 207.167969 280.382812 204.519531 278.273438 200.6875 C 277.773438 199.777344 277.546875 199.074219 277.539062 198.402344 C 277.535156 198.160156 277.566406 197.992188 277.640625 197.867188 C 277.8125 197.570312 278.261719 197.484375 278.511719 197.460938 C 279.554688 197.351562 280.695312 197.726562 282.015625 198.59375 C 285.117188 200.621094 287.210938 203.734375 288.683594 206.214844 C 288.878906 206.539062 289.027344 206.871094 289.253906 207.148438 Z M 294.960938 205.878906 C 294.003906 206.253906 291.0625 207.3125 290.144531 206.859375 C 290.121094 206.832031 290.101562 206.820312 290.085938 206.785156 C 289.984375 206.429688 291.03125 204.945312 291.175781 204.71875 C 291.988281 203.4375 295.792969 198.5625 297.96875 195.78125 C 298.789062 194.730469 299.769531 193.601562 301.007812 193.53125 C 304.71875 193.375 306.515625 201.375 294.960938 205.878906 Z M 294.960938 205.878906 "/><path style=" stroke:none;fill-rule:nonzero;fill:#ffffff;fill-opacity:1;" d="M 549.09375 346.632812 C 551.433594 342.304688 552.09375 337.082031 550.90625 332.304688 C 550.847656 332.066406 550.609375 331.917969 550.371094 331.980469 C 550.132812 332.039062 549.988281 332.28125 550.046875 332.519531 C 551.183594 337.082031 550.550781 342.074219 548.316406 346.210938 C 548.199219 346.425781 548.28125 346.695312 548.496094 346.8125 C 548.707031 346.925781 548.976562 346.847656 549.09375 346.632812 Z M 549.09375 346.632812 "/><path style=" stroke:none;fill-rule:nonzero;fill:#ffffff;fill-opacity:1;" d="M 541.722656 343.539062 C 543.449219 339.773438 544.09375 335.4375 543.539062 331.332031 C 543.507812 331.089844 543.285156 330.910156 543.039062 330.953125 C 542.796875 330.984375 542.628906 331.207031 542.660156 331.449219 C 543.195312 335.390625 542.574219 339.554688 540.917969 343.171875 C 540.816406 343.394531 540.914062 343.65625 541.136719 343.757812 C 541.355469 343.855469 541.621094 343.765625 541.722656 343.539062 Z M 541.722656 343.539062 "/><path style=" stroke:none;fill-rule:nonzero;fill:#ffffff;fill-opacity:1;" d="M 535.113281 340.839844 C 536.3125 337.867188 536.679688 334.621094 536.183594 331.449219 C 536.144531 331.207031 535.917969 331.039062 535.675781 331.082031 C 535.433594 331.121094 535.269531 331.347656 535.308594 331.589844 C 535.78125 334.597656 535.429688 337.683594 534.289062 340.507812 C 534.199219 340.734375 534.308594 340.992188 534.535156 341.085938 C 534.757812 341.175781 535.019531 341.070312 535.113281 340.839844 Z M 535.113281 340.839844 "/><path style=" stroke:none;fill-rule:nonzero;fill:#ff774c;fill-opacity:1;" d="M 314.246094 114.476562 C 314.246094 115.085938 314.273438 115.691406 314.335938 116.300781 C 314.394531 116.90625 314.484375 117.507812 314.601562 118.105469 C 314.722656 118.703125 314.871094 119.296875 315.046875 119.878906 C 315.222656 120.460938 315.429688 121.035156 315.664062 121.597656 C 315.894531 122.164062 316.15625 122.714844 316.445312 123.25 C 316.730469 123.789062 317.042969 124.3125 317.382812 124.816406 C 317.722656 125.324219 318.085938 125.8125 318.472656 126.285156 C 318.859375 126.757812 319.269531 127.207031 319.699219 127.640625 C 320.128906 128.070312 320.582031 128.480469 321.054688 128.867188 C 321.523438 129.253906 322.011719 129.617188 322.519531 129.953125 C 323.027344 130.292969 323.550781 130.605469 324.089844 130.894531 C 324.625 131.179688 325.175781 131.441406 325.738281 131.675781 C 326.304688 131.910156 326.878906 132.113281 327.460938 132.289062 C 328.042969 132.46875 328.636719 132.617188 329.234375 132.734375 C 329.832031 132.855469 330.433594 132.941406 331.039062 133.003906 C 331.648438 133.0625 332.257812 133.09375 332.867188 133.09375 C 333.476562 133.09375 334.085938 133.0625 334.691406 133.003906 C 335.296875 132.941406 335.902344 132.855469 336.5 132.734375 C 337.097656 132.617188 337.6875 132.46875 338.273438 132.289062 C 338.855469 132.113281 339.429688 131.910156 339.992188 131.675781 C 340.554688 131.441406 341.105469 131.179688 341.644531 130.894531 C 342.183594 130.605469 342.703125 130.292969 343.210938 129.953125 C 343.71875 129.617188 344.207031 129.253906 344.679688 128.867188 C 345.152344 128.480469 345.601562 128.070312 346.035156 127.640625 C 346.464844 127.207031 346.875 126.757812 347.261719 126.285156 C 347.648438 125.8125 348.011719 125.324219 348.347656 124.816406 C 348.6875 124.3125 349 123.789062 349.289062 123.25 C 349.574219 122.714844 349.835938 122.164062 350.070312 121.597656 C 350.304688 121.035156 350.507812 120.460938 350.683594 119.878906 C 350.863281 119.296875 351.011719 118.703125 351.128906 118.105469 C 351.25 117.507812 351.335938 116.90625 351.398438 116.300781 C 351.457031 115.691406 351.488281 115.085938 351.488281 114.476562 C 351.488281 113.863281 351.457031 113.257812 351.398438 112.648438 C 351.335938 112.042969 351.25 111.441406 351.128906 110.84375 C 351.011719 110.246094 350.863281 109.652344 350.683594 109.070312 C 350.507812 108.488281 350.304688 107.914062 350.070312 107.351562 C 349.835938 106.785156 349.574219 106.234375 349.289062 105.699219 C 349 105.160156 348.6875 104.636719 348.347656 104.132812 C 348.011719 103.625 347.648438 103.136719 347.261719 102.664062 C 346.875 102.191406 346.464844 101.742188 346.035156 101.308594 C 345.601562 100.878906 345.152344 100.46875 344.679688 100.082031 C 344.207031 99.695312 343.71875 99.332031 343.210938 98.996094 C 342.703125 98.65625 342.183594 98.34375 341.644531 98.054688 C 341.105469 97.769531 340.554688 97.507812 339.992188 97.273438 C 339.429688 97.039062 338.855469 96.835938 338.273438 96.660156 C 337.6875 96.480469 337.097656 96.332031 336.5 96.214844 C 335.902344 96.09375 335.296875 96.007812 334.691406 95.945312 C 334.085938 95.886719 333.476562 95.855469 332.867188 95.855469 C 332.257812 95.855469 331.648438 95.886719 331.039062 95.945312 C 330.433594 96.007812 329.832031 96.09375 329.234375 96.214844 C 328.636719 96.332031 328.042969 96.480469 327.460938 96.660156 C 326.878906 96.835938 326.304688 97.039062 325.738281 97.273438 C 325.175781 97.507812 324.625 97.769531 324.089844 98.054688 C 323.550781 98.34375 323.027344 98.65625 322.519531 98.996094 C 322.011719 99.332031 321.523438 99.695312 321.054688 100.082031 C 320.582031 100.46875 320.128906 100.878906 319.699219 101.308594 C 319.269531 101.742188 318.859375 102.191406 318.472656 102.664062 C 318.085938 103.136719 317.722656 103.625 317.382812 104.132812 C 317.042969 104.636719 316.730469 105.160156 316.445312 105.699219 C 316.15625 106.234375 315.894531 106.785156 315.664062 107.351562 C 315.429688 107.914062 315.222656 108.488281 315.046875 109.070312 C 314.871094 109.652344 314.722656 110.246094 314.601562 110.84375 C 314.484375 111.441406 314.394531 112.042969 314.335938 112.648438 C 314.273438 113.257812 314.246094 113.863281 314.246094 114.476562 Z M 314.246094 114.476562 "/><path style=" stroke:none;fill-rule:nonzero;fill:#f8e77f;fill-opacity:1;" d="M 332.867188 95.855469 L 332.867188 133.09375 C 343.148438 133.09375 351.488281 124.757812 351.488281 114.476562 C 351.488281 104.191406 343.148438 95.855469 332.867188 95.855469 Z M 332.867188 95.855469 "/><path style=" stroke:none;fill-rule:nonzero;fill:#72d497;fill-opacity:1;" d="M 332.867188 114.476562 L 332.867188 133.09375 C 343.148438 133.09375 351.488281 124.757812 351.488281 114.476562 Z M 332.867188 114.476562 "/><path style=" stroke:none;fill-rule:nonzero;fill:#72d497;fill-opacity:1;" d="M 296.449219 101.667969 L 252.957031 101.667969 L 252.957031 105.734375 L 296.449219 105.734375 Z M 296.449219 101.667969 "/><path style=" stroke:none;fill-rule:nonzero;fill:#f8e77f;fill-opacity:1;" d="M 296.449219 112.441406 L 263.121094 112.441406 L 263.121094 116.507812 L 296.449219 116.507812 Z M 296.449219 112.441406 "/><path style=" stroke:none;fill-rule:nonzero;fill:#ff774c;fill-opacity:1;" d="M 296.449219 123.214844 L 272.082031 123.214844 L 272.082031 127.28125 L 296.449219 127.28125 Z M 296.449219 123.214844 "/><path style=" stroke:none;fill-rule:nonzero;fill:#9dd3f5;fill-opacity:0.81;" d="M 352.839844 146.640625 L 247.632812 146.640625 L 247.632812 171.105469 L 352.839844 171.105469 Z M 352.839844 146.640625 "/><path style=" stroke:none;fill-rule:nonzero;fill:#27254c;fill-opacity:1;" d="M 297.722656 152.28125 C 297.722656 152.28125 297.726562 152.28125 297.730469 152.28125 C 310.921875 151.984375 323.878906 151.984375 337.339844 152.28125 C 337.574219 152.269531 337.742188 152.109375 337.75 151.890625 C 337.753906 151.667969 337.578125 151.484375 337.359375 151.480469 C 323.886719 151.183594 310.917969 151.183594 297.710938 151.480469 C 297.492188 151.484375 297.316406 151.667969 297.320312 151.890625 C 297.328125 152.105469 297.503906 152.28125 297.722656 152.28125 Z M 297.722656 152.28125 "/><path style=" stroke:none;fill-rule:nonzero;fill:#27254c;fill-opacity:1;" d="M 263.125 159.273438 C 263.125 159.273438 263.128906 159.273438 263.128906 159.273438 C 268.484375 159.246094 273.84375 159.230469 279.203125 159.21875 C 279.421875 159.21875 279.601562 159.039062 279.601562 158.820312 C 279.601562 158.597656 279.421875 158.421875 279.199219 158.421875 C 273.839844 158.429688 268.484375 158.445312 263.125 158.472656 C 262.902344 158.472656 262.726562 158.652344 262.726562 158.875 C 262.726562 159.09375 262.90625 159.273438 263.125 159.273438 Z M 263.125 159.273438 "/><path style=" stroke:none;fill-rule:nonzero;fill:#27254c;fill-opacity:1;" d="M 316.765625 159.273438 C 316.984375 159.273438 317.164062 159.09375 317.167969 158.875 C 317.167969 158.652344 316.988281 158.472656 316.769531 158.472656 C 307.03125 158.425781 296.949219 158.402344 286.8125 158.410156 C 286.589844 158.410156 286.414062 158.589844 286.414062 158.8125 C 286.414062 159.03125 286.59375 159.210938 286.8125 159.210938 C 296.953125 159.203125 307.027344 159.226562 316.765625 159.273438 Z M 316.765625 159.273438 "/><path style=" stroke:none;fill-rule:nonzero;fill:#27254c;fill-opacity:1;" d="M 323.25 159.273438 L 337.347656 159.273438 C 337.570312 159.273438 337.75 159.09375 337.75 158.871094 C 337.75 158.652344 337.570312 158.472656 337.347656 158.472656 L 323.25 158.472656 C 323.027344 158.472656 322.847656 158.652344 322.847656 158.871094 C 322.847656 159.09375 323.027344 159.273438 323.25 159.273438 Z M 323.25 159.273438 "/><path style=" stroke:none;fill-rule:nonzero;fill:#27254c;fill-opacity:1;" d="M 277.394531 166.363281 C 282.207031 166.363281 287.058594 166.328125 291.914062 166.261719 C 292.136719 166.261719 292.3125 166.078125 292.308594 165.859375 C 292.304688 165.640625 292.128906 165.464844 291.910156 165.464844 C 291.90625 165.464844 291.90625 165.464844 291.902344 165.464844 C 282.195312 165.597656 272.515625 165.597656 263.132812 165.464844 C 263.128906 165.464844 263.128906 165.464844 263.125 165.464844 C 262.90625 165.464844 262.730469 165.640625 262.726562 165.859375 C 262.722656 166.078125 262.898438 166.261719 263.121094 166.261719 C 267.816406 166.328125 272.585938 166.363281 277.394531 166.363281 Z M 277.394531 166.363281 "/><path style=" stroke:none;fill-rule:nonzero;fill:#27254c;fill-opacity:1;" d="M 322.625 166.363281 C 327.597656 166.363281 332.585938 166.328125 337.355469 166.261719 C 337.574219 166.261719 337.75 166.078125 337.75 165.859375 C 337.746094 165.636719 337.5625 165.445312 337.34375 165.464844 C 327.8125 165.597656 317.402344 165.597656 308.023438 165.464844 C 307.835938 165.449219 307.621094 165.636719 307.617188 165.859375 C 307.613281 166.078125 307.792969 166.261719 308.011719 166.261719 C 312.703125 166.328125 317.65625 166.363281 322.625 166.363281 Z M 322.625 166.363281 "/><path style=" stroke:none;fill-rule:nonzero;fill:#18142e;fill-opacity:1;" d="M 472.195312 84.101562 C 472.707031 81.902344 472.28125 79.609375 471.910156 77.589844 C 471.863281 77.347656 471.632812 77.191406 471.390625 77.234375 C 471.152344 77.277344 470.992188 77.507812 471.035156 77.75 C 471.394531 79.6875 471.800781 81.882812 471.332031 83.898438 C 471.277344 84.136719 471.425781 84.375 471.664062 84.433594 C 471.902344 84.488281 472.140625 84.339844 472.195312 84.101562 Z M 472.195312 84.101562 "/><path style=" stroke:none;fill-rule:nonzero;fill:#27254c;fill-opacity:1;" d="M 499.582031 81.984375 C 503.519531 80.648438 507.328125 78.746094 509.292969 75.101562 C 509.410156 74.886719 509.328125 74.617188 509.113281 74.5 C 508.898438 74.382812 508.628906 74.464844 508.511719 74.679688 C 506.660156 78.117188 502.980469 79.894531 499.296875 81.144531 C 499.066406 81.222656 498.941406 81.472656 499.019531 81.707031 C 499.101562 81.941406 499.359375 82.058594 499.582031 81.984375 Z M 499.582031 81.984375 "/><path style=" stroke:none;fill-rule:nonzero;fill:#27254c;fill-opacity:1;" d="M 487.539062 77.359375 C 487.804688 75.191406 488.3125 70.835938 489.398438 68.894531 C 489.730469 68.296875 490.195312 67.746094 490.644531 67.214844 C 490.800781 67.027344 490.777344 66.75 490.589844 66.589844 C 490.402344 66.433594 490.125 66.457031 489.96875 66.644531 C 488.320312 68.59375 487.617188 69.4375 486.660156 77.253906 C 486.628906 77.496094 486.800781 77.714844 487.046875 77.746094 C 487.28125 77.777344 487.507812 77.605469 487.539062 77.359375 Z M 487.539062 77.359375 "/></g></svg>